<svg xmlns="http://www.w3.org/2000/svg" xmlns:xlink="http://www.w3.org/1999/xlink" width="500" zoomAndPan="magnify" viewBox="0 0 375 374.999991" height="500" preserveAspectRatio="xMidYMid meet" version="1.0"><defs><g/><clipPath id="8105bea6e4"><path d="M 89 91.824219 L 286.5625 91.824219 L 286.5625 187.824219 L 89 187.824219 Z M 89 91.824219 " clip-rule="nonzero"/></clipPath><clipPath id="0800fba9b8"><path d="M 123.414062 114.117188 L 250.914062 114.117188 L 250.914062 211.617188 L 123.414062 211.617188 Z M 123.414062 114.117188 " clip-rule="nonzero"/></clipPath></defs><g clip-path="url(#8105bea6e4)"><path fill="#dd6f6f" d="M 97.78125 166.53125 C 97.726562 166.527344 97.671875 166.523438 97.617188 166.515625 C 97.375 166.46875 97.183594 166.34375 97.042969 166.140625 C 96.902344 165.933594 96.855469 165.710938 96.898438 165.46875 C 97.3125 163.253906 97.8125 161.0625 98.40625 158.890625 C 98.996094 156.71875 99.675781 154.574219 100.441406 152.457031 C 101.207031 150.339844 102.058594 148.261719 102.992188 146.214844 C 103.929688 144.167969 104.949219 142.164062 106.046875 140.199219 C 107.148438 138.238281 108.324219 136.324219 109.582031 134.457031 C 110.839844 132.589844 112.167969 130.78125 113.574219 129.023438 C 114.976562 127.265625 116.449219 125.570312 117.992188 123.933594 C 119.535156 122.296875 121.140625 120.730469 122.8125 119.226562 C 124.484375 117.722656 126.210938 116.289062 128 114.925781 C 129.789062 113.5625 131.628906 112.277344 133.519531 111.066406 C 135.414062 109.855469 137.351562 108.726562 139.335938 107.671875 C 141.324219 106.621094 143.347656 105.652344 145.410156 104.769531 C 147.476562 103.882812 149.574219 103.082031 151.703125 102.371094 C 153.832031 101.65625 155.984375 101.03125 158.167969 100.496094 C 160.347656 99.957031 162.546875 99.511719 164.761719 99.15625 C 166.980469 98.800781 169.207031 98.535156 171.445312 98.363281 C 171.691406 98.34375 171.910156 98.417969 172.097656 98.578125 C 172.285156 98.738281 172.386719 98.945312 172.40625 99.191406 C 172.425781 99.4375 172.355469 99.65625 172.195312 99.84375 C 172.03125 100.03125 171.828125 100.136719 171.582031 100.15625 C 169.394531 100.324219 167.214844 100.582031 165.046875 100.929688 C 162.875 101.277344 160.726562 101.714844 158.59375 102.238281 C 156.460938 102.761719 154.351562 103.375 152.269531 104.070312 C 150.183594 104.769531 148.132812 105.550781 146.113281 106.417969 C 144.09375 107.28125 142.113281 108.230469 140.171875 109.257812 C 138.230469 110.285156 136.335938 111.394531 134.484375 112.578125 C 132.632812 113.761719 130.832031 115.019531 129.082031 116.351562 C 127.332031 117.683594 125.640625 119.085938 124.007812 120.558594 C 122.375 122.027344 120.800781 123.566406 119.292969 125.164062 C 117.785156 126.765625 116.34375 128.425781 114.96875 130.144531 C 113.597656 131.863281 112.296875 133.632812 111.066406 135.460938 C 109.839844 137.285156 108.6875 139.15625 107.609375 141.078125 C 106.535156 142.996094 105.539062 144.957031 104.625 146.960938 C 103.707031 148.960938 102.875 150.996094 102.125 153.066406 C 101.375 155.136719 100.714844 157.234375 100.136719 159.359375 C 99.558594 161.484375 99.066406 163.628906 98.664062 165.792969 C 98.625 166.007812 98.519531 166.183594 98.355469 166.320312 C 98.1875 166.460938 97.996094 166.53125 97.78125 166.53125 Z M 195.007812 99.019531 C 195.007812 98.546875 194.960938 98.078125 194.867188 97.613281 C 194.777344 97.148438 194.640625 96.699219 194.460938 96.261719 C 194.28125 95.828125 194.058594 95.410156 193.796875 95.019531 C 193.535156 94.625 193.238281 94.261719 192.902344 93.929688 C 192.570312 93.59375 192.207031 93.296875 191.816406 93.03125 C 191.425781 92.769531 191.011719 92.546875 190.574219 92.367188 C 190.140625 92.1875 189.691406 92.050781 189.230469 91.957031 C 188.765625 91.867188 188.300781 91.820312 187.828125 91.820312 C 187.355469 91.820312 186.890625 91.867188 186.425781 91.957031 C 185.964844 92.050781 185.515625 92.1875 185.082031 92.367188 C 184.644531 92.546875 184.230469 92.769531 183.839844 93.03125 C 183.449219 93.296875 183.085938 93.59375 182.753906 93.929688 C 182.417969 94.261719 182.121094 94.625 181.859375 95.019531 C 181.597656 95.410156 181.375 95.828125 181.195312 96.261719 C 181.015625 96.699219 180.878906 97.148438 180.789062 97.613281 C 180.695312 98.078125 180.648438 98.546875 180.648438 99.019531 C 180.648438 99.492188 180.695312 99.957031 180.789062 100.421875 C 180.878906 100.886719 181.015625 101.335938 181.195312 101.773438 C 181.375 102.210938 181.597656 102.625 181.859375 103.015625 C 182.121094 103.410156 182.417969 103.773438 182.753906 104.109375 C 183.085938 104.441406 183.449219 104.742188 183.839844 105.003906 C 184.230469 105.265625 184.644531 105.488281 185.082031 105.667969 C 185.515625 105.847656 185.964844 105.984375 186.425781 106.078125 C 186.890625 106.171875 187.355469 106.214844 187.828125 106.214844 C 188.300781 106.214844 188.765625 106.167969 189.226562 106.078125 C 189.691406 105.984375 190.140625 105.847656 190.574219 105.667969 C 191.007812 105.484375 191.421875 105.265625 191.816406 105 C 192.207031 104.738281 192.570312 104.441406 192.902344 104.105469 C 193.234375 103.773438 193.53125 103.410156 193.796875 103.015625 C 194.058594 102.621094 194.277344 102.207031 194.457031 101.773438 C 194.640625 101.335938 194.777344 100.886719 194.867188 100.421875 C 194.960938 99.957031 195.007812 99.492188 195.007812 99.019531 Z M 193.214844 99.019531 C 193.214844 99.371094 193.179688 99.722656 193.113281 100.070312 C 193.042969 100.417969 192.941406 100.757812 192.804688 101.085938 C 192.671875 101.414062 192.503906 101.726562 192.308594 102.019531 C 192.113281 102.316406 191.886719 102.585938 191.636719 102.839844 C 191.386719 103.089844 191.117188 103.3125 190.824219 103.511719 C 190.527344 103.707031 190.21875 103.875 189.890625 104.011719 C 189.566406 104.144531 189.226562 104.25 188.882812 104.316406 C 188.535156 104.386719 188.183594 104.421875 187.832031 104.421875 C 187.476562 104.421875 187.125 104.386719 186.777344 104.320312 C 186.433594 104.25 186.09375 104.148438 185.769531 104.011719 C 185.441406 103.875 185.132812 103.710938 184.835938 103.511719 C 184.542969 103.316406 184.269531 103.09375 184.019531 102.839844 C 183.769531 102.589844 183.546875 102.316406 183.351562 102.023438 C 183.152344 101.726562 182.988281 101.417969 182.851562 101.089844 C 182.71875 100.761719 182.613281 100.425781 182.546875 100.074219 C 182.476562 99.726562 182.441406 99.375 182.441406 99.023438 C 182.441406 98.667969 182.476562 98.316406 182.546875 97.96875 C 182.613281 97.621094 182.714844 97.28125 182.851562 96.953125 C 182.988281 96.628906 183.152344 96.316406 183.347656 96.019531 C 183.546875 95.726562 183.769531 95.453125 184.019531 95.203125 C 184.269531 94.953125 184.542969 94.726562 184.835938 94.53125 C 185.128906 94.332031 185.441406 94.167969 185.765625 94.03125 C 186.09375 93.894531 186.429688 93.792969 186.777344 93.722656 C 187.125 93.65625 187.472656 93.621094 187.828125 93.621094 C 188.179688 93.621094 188.53125 93.65625 188.878906 93.726562 C 189.226562 93.792969 189.5625 93.898438 189.886719 94.03125 C 190.214844 94.167969 190.523438 94.335938 190.816406 94.53125 C 191.113281 94.726562 191.382812 94.953125 191.632812 95.203125 C 191.882812 95.453125 192.105469 95.726562 192.304688 96.019531 C 192.5 96.316406 192.667969 96.625 192.800781 96.953125 C 192.9375 97.28125 193.039062 97.617188 193.109375 97.964844 C 193.179688 98.3125 193.214844 98.664062 193.214844 99.019531 Z M 103.585938 180.628906 C 103.585938 180.15625 103.542969 179.6875 103.449219 179.222656 C 103.359375 178.757812 103.222656 178.308594 103.042969 177.871094 C 102.863281 177.433594 102.640625 177.019531 102.378906 176.628906 C 102.117188 176.234375 101.820312 175.871094 101.488281 175.535156 C 101.152344 175.203125 100.789062 174.902344 100.398438 174.640625 C 100.007812 174.378906 99.59375 174.15625 99.15625 173.976562 C 98.722656 173.792969 98.273438 173.65625 97.8125 173.566406 C 97.347656 173.472656 96.882812 173.425781 96.410156 173.425781 C 95.9375 173.425781 95.472656 173.472656 95.011719 173.5625 C 94.546875 173.65625 94.097656 173.792969 93.664062 173.972656 C 93.226562 174.152344 92.8125 174.375 92.421875 174.636719 C 92.03125 174.902344 91.667969 175.199219 91.332031 175.53125 C 91 175.867188 90.703125 176.230469 90.441406 176.625 C 90.179688 177.015625 89.957031 177.433594 89.777344 177.867188 C 89.597656 178.304688 89.460938 178.753906 89.367188 179.21875 C 89.277344 179.683594 89.230469 180.152344 89.230469 180.625 C 89.230469 181.097656 89.277344 181.5625 89.367188 182.027344 C 89.460938 182.492188 89.597656 182.941406 89.777344 183.378906 C 89.957031 183.816406 90.175781 184.230469 90.441406 184.621094 C 90.703125 185.015625 91 185.378906 91.332031 185.714844 C 91.664062 186.046875 92.027344 186.347656 92.421875 186.609375 C 92.8125 186.871094 93.226562 187.09375 93.660156 187.273438 C 94.097656 187.457031 94.546875 187.59375 95.007812 187.683594 C 95.46875 187.777344 95.9375 187.824219 96.410156 187.824219 C 96.878906 187.820312 97.347656 187.777344 97.808594 187.683594 C 98.269531 187.589844 98.71875 187.453125 99.152344 187.273438 C 99.585938 187.09375 100 186.871094 100.390625 186.609375 C 100.785156 186.34375 101.144531 186.046875 101.480469 185.714844 C 101.8125 185.378906 102.109375 185.015625 102.371094 184.625 C 102.632812 184.230469 102.855469 183.816406 103.035156 183.382812 C 103.21875 182.945312 103.355469 182.496094 103.445312 182.035156 C 103.539062 181.570312 103.585938 181.101562 103.585938 180.628906 Z M 101.792969 180.628906 C 101.796875 180.980469 101.761719 181.332031 101.691406 181.679688 C 101.621094 182.027344 101.519531 182.367188 101.386719 182.695312 C 101.25 183.023438 101.085938 183.332031 100.886719 183.628906 C 100.691406 183.925781 100.46875 184.195312 100.21875 184.449219 C 99.96875 184.699219 99.695312 184.921875 99.402344 185.121094 C 99.109375 185.316406 98.796875 185.484375 98.472656 185.621094 C 98.144531 185.753906 97.808594 185.859375 97.460938 185.925781 C 97.113281 185.996094 96.765625 186.03125 96.410156 186.03125 C 96.058594 186.03125 95.707031 185.996094 95.359375 185.929688 C 95.011719 185.859375 94.675781 185.757812 94.347656 185.621094 C 94.023438 185.484375 93.710938 185.320312 93.417969 185.121094 C 93.125 184.925781 92.851562 184.703125 92.601562 184.449219 C 92.351562 184.199219 92.128906 183.925781 91.929688 183.632812 C 91.734375 183.335938 91.566406 183.027344 91.433594 182.699219 C 91.296875 182.371094 91.195312 182.035156 91.125 181.683594 C 91.058594 181.335938 91.023438 180.984375 91.023438 180.632812 C 91.023438 180.277344 91.058594 179.925781 91.125 179.578125 C 91.195312 179.230469 91.296875 178.890625 91.433594 178.5625 C 91.566406 178.238281 91.734375 177.925781 91.929688 177.628906 C 92.125 177.335938 92.347656 177.0625 92.597656 176.8125 C 92.851562 176.5625 93.121094 176.335938 93.414062 176.140625 C 93.710938 175.941406 94.019531 175.777344 94.347656 175.640625 C 94.675781 175.503906 95.011719 175.402344 95.359375 175.332031 C 95.703125 175.265625 96.054688 175.230469 96.410156 175.230469 C 96.761719 175.230469 97.113281 175.265625 97.460938 175.332031 C 97.804688 175.402344 98.144531 175.503906 98.46875 175.640625 C 98.796875 175.777344 99.105469 175.945312 99.398438 176.140625 C 99.695312 176.335938 99.964844 176.5625 100.214844 176.8125 C 100.464844 177.0625 100.691406 177.335938 100.886719 177.628906 C 101.082031 177.925781 101.25 178.238281 101.382812 178.5625 C 101.519531 178.890625 101.621094 179.230469 101.691406 179.578125 C 101.761719 179.925781 101.792969 180.277344 101.792969 180.628906 Z M 278.039062 166.511719 C 278.28125 166.464844 278.472656 166.339844 278.613281 166.136719 C 278.753906 165.933594 278.800781 165.707031 278.757812 165.464844 C 278.34375 163.25 277.84375 161.058594 277.253906 158.886719 C 276.660156 156.714844 275.980469 154.570312 275.214844 152.457031 C 274.449219 150.339844 273.597656 148.257812 272.664062 146.210938 C 271.726562 144.164062 270.707031 142.160156 269.609375 140.199219 C 268.507812 138.234375 267.332031 136.320312 266.074219 134.457031 C 264.820312 132.589844 263.488281 130.777344 262.085938 129.023438 C 260.679688 127.265625 259.207031 125.570312 257.664062 123.933594 C 256.121094 122.296875 254.515625 120.726562 252.84375 119.222656 C 251.175781 117.71875 249.445312 116.289062 247.65625 114.925781 C 245.871094 113.5625 244.03125 112.277344 242.136719 111.066406 C 240.246094 109.855469 238.304688 108.722656 236.320312 107.671875 C 234.335938 106.621094 232.3125 105.652344 230.246094 104.765625 C 228.183594 103.882812 226.085938 103.082031 223.957031 102.371094 C 221.828125 101.65625 219.671875 101.03125 217.492188 100.496094 C 215.3125 99.957031 213.113281 99.511719 210.894531 99.15625 C 208.679688 98.800781 206.453125 98.535156 204.214844 98.363281 C 203.96875 98.34375 203.75 98.417969 203.5625 98.578125 C 203.375 98.738281 203.269531 98.945312 203.253906 99.191406 C 203.234375 99.4375 203.304688 99.65625 203.464844 99.84375 C 203.625 100.03125 203.832031 100.136719 204.078125 100.15625 C 206.265625 100.324219 208.445312 100.582031 210.613281 100.929688 C 212.78125 101.277344 214.933594 101.714844 217.066406 102.238281 C 219.199219 102.765625 221.308594 103.375 223.390625 104.074219 C 225.472656 104.773438 227.523438 105.554688 229.542969 106.417969 C 231.5625 107.285156 233.542969 108.234375 235.484375 109.261719 C 237.425781 110.289062 239.324219 111.398438 241.175781 112.582031 C 243.023438 113.765625 244.824219 115.023438 246.574219 116.355469 C 248.324219 117.6875 250.015625 119.089844 251.648438 120.5625 C 253.28125 122.03125 254.855469 123.570312 256.363281 125.167969 C 257.871094 126.769531 259.3125 128.429688 260.6875 130.144531 C 262.058594 131.863281 263.359375 133.636719 264.589844 135.460938 C 265.816406 137.285156 266.96875 139.160156 268.046875 141.078125 C 269.121094 143 270.117188 144.960938 271.035156 146.960938 C 271.949219 148.964844 272.78125 151 273.53125 153.070312 C 274.28125 155.140625 274.945312 157.234375 275.523438 159.359375 C 276.101562 161.484375 276.59375 163.628906 276.996094 165.792969 C 277.035156 166.007812 277.136719 166.183594 277.304688 166.320312 C 277.46875 166.460938 277.660156 166.527344 277.875 166.53125 C 277.929688 166.527344 277.984375 166.523438 278.039062 166.515625 Z M 286.425781 180.628906 C 286.425781 180.15625 286.378906 179.6875 286.289062 179.222656 C 286.195312 178.757812 286.0625 178.308594 285.882812 177.871094 C 285.699219 177.433594 285.480469 177.019531 285.21875 176.628906 C 284.957031 176.234375 284.660156 175.871094 284.324219 175.535156 C 283.992188 175.203125 283.628906 174.902344 283.238281 174.640625 C 282.847656 174.378906 282.433594 174.15625 281.996094 173.976562 C 281.5625 173.792969 281.113281 173.65625 280.652344 173.566406 C 280.1875 173.472656 279.722656 173.425781 279.25 173.425781 C 278.777344 173.425781 278.3125 173.472656 277.847656 173.5625 C 277.386719 173.65625 276.9375 173.792969 276.503906 173.972656 C 276.066406 174.152344 275.652344 174.375 275.261719 174.636719 C 274.867188 174.902344 274.507812 175.199219 274.171875 175.53125 C 273.839844 175.867188 273.542969 176.230469 273.28125 176.625 C 273.019531 177.015625 272.796875 177.433594 272.617188 177.867188 C 272.4375 178.304688 272.300781 178.753906 272.207031 179.21875 C 272.117188 179.683594 272.070312 180.152344 272.070312 180.625 C 272.070312 181.097656 272.113281 181.5625 272.207031 182.027344 C 272.300781 182.492188 272.433594 182.941406 272.617188 183.378906 C 272.796875 183.816406 273.015625 184.230469 273.277344 184.621094 C 273.539062 185.015625 273.839844 185.378906 274.171875 185.714844 C 274.503906 186.046875 274.867188 186.347656 275.257812 186.609375 C 275.652344 186.871094 276.066406 187.09375 276.5 187.273438 C 276.9375 187.457031 277.386719 187.59375 277.847656 187.683594 C 278.308594 187.777344 278.777344 187.824219 279.246094 187.824219 C 279.71875 187.820312 280.183594 187.777344 280.648438 187.683594 C 281.109375 187.589844 281.558594 187.453125 281.992188 187.273438 C 282.425781 187.09375 282.839844 186.871094 283.230469 186.609375 C 283.625 186.34375 283.984375 186.046875 284.320312 185.714844 C 284.652344 185.378906 284.949219 185.015625 285.210938 184.625 C 285.472656 184.230469 285.695312 183.816406 285.875 183.382812 C 286.054688 182.945312 286.191406 182.496094 286.285156 182.035156 C 286.378906 181.570312 286.425781 181.101562 286.425781 180.628906 Z M 284.632812 180.628906 C 284.632812 180.980469 284.597656 181.332031 284.53125 181.679688 C 284.460938 182.027344 284.359375 182.367188 284.222656 182.695312 C 284.089844 183.023438 283.921875 183.332031 283.726562 183.628906 C 283.53125 183.921875 283.304688 184.195312 283.054688 184.445312 C 282.804688 184.699219 282.535156 184.921875 282.238281 185.117188 C 281.945312 185.316406 281.636719 185.480469 281.308594 185.617188 C 280.980469 185.753906 280.644531 185.855469 280.296875 185.925781 C 279.953125 185.992188 279.601562 186.027344 279.246094 186.027344 C 278.894531 186.027344 278.542969 185.992188 278.195312 185.925781 C 277.851562 185.855469 277.511719 185.753906 277.1875 185.617188 C 276.859375 185.480469 276.550781 185.316406 276.253906 185.117188 C 275.960938 184.921875 275.6875 184.699219 275.4375 184.445312 C 275.1875 184.195312 274.964844 183.921875 274.769531 183.628906 C 274.574219 183.332031 274.40625 183.023438 274.273438 182.695312 C 274.136719 182.367188 274.035156 182.027344 273.964844 181.679688 C 273.894531 181.332031 273.863281 180.980469 273.863281 180.628906 C 273.863281 180.273438 273.894531 179.921875 273.964844 179.574219 C 274.035156 179.226562 274.136719 178.886719 274.273438 178.558594 C 274.40625 178.234375 274.574219 177.921875 274.769531 177.625 C 274.964844 177.332031 275.1875 177.058594 275.4375 176.808594 C 275.6875 176.558594 275.960938 176.332031 276.253906 176.136719 C 276.550781 175.941406 276.859375 175.773438 277.1875 175.636719 C 277.511719 175.5 277.851562 175.398438 278.195312 175.328125 C 278.542969 175.261719 278.894531 175.226562 279.246094 175.226562 C 279.601562 175.226562 279.953125 175.261719 280.296875 175.332031 C 280.644531 175.398438 280.984375 175.503906 281.308594 175.636719 C 281.636719 175.773438 281.945312 175.941406 282.242188 176.136719 C 282.535156 176.335938 282.804688 176.558594 283.054688 176.808594 C 283.308594 177.0625 283.53125 177.335938 283.726562 177.628906 C 283.921875 177.925781 284.089844 178.234375 284.222656 178.5625 C 284.359375 178.890625 284.460938 179.230469 284.53125 179.578125 C 284.597656 179.925781 284.632812 180.277344 284.632812 180.628906 Z M 284.632812 180.628906 " fill-opacity="1" fill-rule="nonzero"/></g><path fill="#dd6f6f" d="M 187.136719 202.652344 C 187.136719 202.695312 187.132812 202.742188 187.132812 202.789062 C 187.128906 202.878906 187.121094 202.972656 187.113281 203.0625 C 187.121094 202.96875 187.128906 202.878906 187.132812 202.789062 C 187.132812 202.742188 187.136719 202.695312 187.136719 202.652344 " fill-opacity="1" fill-rule="nonzero"/><g clip-path="url(#0800fba9b8)"><path fill="#dd6f6f" d="M 226.269531 174.5 C 228.246094 174.5 229.867188 172.886719 229.867188 170.917969 C 229.867188 168.949219 228.246094 167.335938 226.269531 167.335938 C 224.289062 167.335938 222.671875 168.949219 222.671875 170.917969 C 222.671875 172.886719 224.289062 174.5 226.269531 174.5 Z M 226.269531 175.625 C 228.871094 175.625 231 173.507812 231 170.917969 C 231 168.328125 228.871094 166.210938 226.269531 166.210938 C 223.667969 166.210938 221.554688 168.328125 221.554688 170.917969 C 221.554688 173.507812 223.667969 175.625 226.269531 175.625 Z M 218.089844 182.953125 C 220.070312 182.953125 221.675781 181.355469 221.675781 179.371094 C 221.675781 177.402344 220.070312 175.804688 218.089844 175.804688 C 216.113281 175.804688 214.492188 177.402344 214.492188 179.371094 C 214.492188 181.355469 216.113281 182.953125 218.089844 182.953125 Z M 218.089844 184.078125 C 220.695312 184.078125 222.804688 181.960938 222.804688 179.371094 C 222.804688 176.796875 220.695312 174.679688 218.089844 174.679688 C 215.488281 174.679688 213.359375 176.796875 213.359375 179.371094 C 213.359375 181.960938 215.488281 184.078125 218.089844 184.078125 Z M 180.320312 185.457031 C 182.296875 185.457031 183.902344 183.855469 183.902344 181.886719 C 183.902344 179.917969 182.296875 178.304688 180.320312 178.304688 C 178.339844 178.304688 176.71875 179.917969 176.71875 181.886719 C 176.71875 183.855469 178.339844 185.457031 180.320312 185.457031 Z M 180.320312 186.582031 C 182.921875 186.582031 185.03125 184.480469 185.03125 181.886719 C 185.03125 179.296875 182.921875 177.179688 180.320312 177.179688 C 177.714844 177.179688 175.589844 179.296875 175.589844 181.886719 C 175.589844 184.480469 177.714844 186.582031 180.320312 186.582031 Z M 163.945312 179.195312 C 165.925781 179.195312 167.542969 177.59375 167.542969 175.609375 C 167.542969 173.644531 165.925781 172.042969 163.945312 172.042969 C 161.96875 172.042969 160.347656 173.644531 160.347656 175.609375 C 160.347656 177.59375 161.96875 179.195312 163.945312 179.195312 Z M 163.945312 180.320312 C 166.546875 180.320312 168.675781 178.203125 168.675781 175.609375 C 168.675781 173.035156 166.546875 170.917969 163.945312 170.917969 C 161.34375 170.917969 159.230469 173.035156 159.230469 175.609375 C 159.230469 178.203125 161.34375 180.320312 163.945312 180.320312 Z M 149.460938 174.8125 C 151.453125 174.8125 153.058594 173.199219 153.058594 171.230469 C 153.058594 169.261719 151.453125 167.648438 149.460938 167.648438 C 147.484375 167.648438 145.878906 169.261719 145.878906 171.230469 C 145.878906 173.199219 147.484375 174.8125 149.460938 174.8125 Z M 149.460938 175.9375 C 152.0625 175.9375 154.191406 173.820312 154.191406 171.230469 C 154.191406 168.636719 152.0625 166.539062 149.460938 166.539062 C 146.875 166.539062 144.746094 168.636719 144.746094 171.230469 C 144.746094 173.820312 146.875 175.9375 149.460938 175.9375 Z M 176.230469 162.273438 C 178.207031 162.273438 179.8125 160.675781 179.8125 158.691406 C 179.8125 156.722656 178.207031 155.125 176.230469 155.125 C 174.238281 155.125 172.628906 156.722656 172.628906 158.691406 C 172.628906 160.675781 174.238281 162.273438 176.230469 162.273438 Z M 176.230469 163.398438 C 178.832031 163.398438 180.941406 161.28125 180.941406 158.691406 C 180.941406 156.117188 178.832031 153.996094 176.230469 153.996094 C 173.625 153.996094 171.5 156.117188 171.5 158.691406 C 171.5 161.28125 173.625 163.398438 176.230469 163.398438 Z M 203.292969 169.171875 C 205.269531 169.171875 206.894531 167.558594 206.894531 165.589844 C 206.894531 163.621094 205.269531 162.007812 203.292969 162.007812 C 201.316406 162.007812 199.695312 163.621094 199.695312 165.589844 C 199.695312 167.558594 201.316406 169.171875 203.292969 169.171875 Z M 203.292969 170.296875 C 205.894531 170.296875 208.023438 168.179688 208.023438 165.589844 C 208.023438 163 205.894531 160.898438 203.292969 160.898438 C 200.691406 160.898438 198.566406 163 198.566406 165.589844 C 198.566406 168.179688 200.691406 170.296875 203.292969 170.296875 Z M 226.578125 151.480469 C 229.339844 151.480469 231.601562 149.226562 231.601562 146.480469 C 231.601562 143.730469 229.339844 141.476562 226.578125 141.476562 C 223.816406 141.476562 221.574219 143.730469 221.574219 146.480469 C 221.574219 149.226562 223.816406 151.480469 226.578125 151.480469 Z M 249.21875 173.890625 C 249.058594 172.25 248.101562 169.683594 247.566406 168.425781 C 247.324219 167.839844 247.328125 167.578125 247.394531 167.160156 C 247.410156 167.046875 247.433594 166.902344 247.445312 166.6875 C 247.453125 166.566406 247.457031 166.453125 247.457031 166.335938 L 218.542969 179.734375 L 216.574219 188.894531 C 216.941406 189.105469 217.324219 189.476562 217.773438 189.910156 C 218.109375 190.238281 218.457031 190.574219 218.71875 190.761719 C 220.8125 192.285156 221.515625 192.796875 223.855469 193.722656 C 224.003906 193.78125 224.117188 193.847656 224.203125 193.898438 C 224.28125 193.945312 224.324219 193.96875 224.429688 194.003906 L 226.566406 194.617188 C 228.980469 195.175781 231.625 195.210938 233.964844 194.710938 L 234.0625 194.691406 C 234.949219 194.507812 235.65625 194.367188 236.46875 194.070312 C 236.648438 194.003906 236.839844 193.9375 237.035156 193.871094 C 237.226562 193.804688 237.421875 193.738281 237.609375 193.664062 L 237.726562 193.621094 C 237.910156 193.554688 237.992188 193.523438 238.164062 193.445312 C 239.265625 192.976562 240.382812 192.351562 241.332031 191.675781 L 241.546875 191.519531 C 243.585938 190.035156 246.167969 187.5 247.3125 184.839844 C 247.425781 184.570312 247.5625 184.296875 247.699219 184.023438 C 247.886719 183.660156 248.058594 183.316406 248.183594 182.953125 C 248.628906 181.589844 248.9375 180.339844 249.121094 179.140625 C 249.375 177.386719 249.402344 175.863281 249.21875 173.890625 Z M 217.480469 179.738281 L 185.640625 170.917969 L 181.046875 181.511719 L 215.507812 188.851562 C 215.511719 188.847656 215.515625 188.84375 215.523438 188.84375 Z M 214.929688 189.785156 L 180.753906 182.511719 L 179.003906 194.328125 C 179.449219 194.632812 179.875 195.203125 180.394531 195.9375 C 180.511719 196.101562 180.613281 196.25 180.695312 196.355469 C 181.671875 197.597656 183.167969 198.9375 184.601562 199.859375 L 187.117188 201.304688 C 188.59375 202.164062 190.640625 202.792969 193.203125 203.167969 C 196.859375 203.722656 200.960938 203.066406 204.75 201.320312 C 206.363281 200.582031 208.0625 199.433594 209.542969 198.085938 C 210.488281 197.230469 211.238281 196.390625 211.984375 195.359375 C 212.828125 194.210938 213.460938 193.261719 214.007812 192.0625 C 214.082031 191.902344 214.140625 191.796875 214.195312 191.703125 C 214.230469 191.636719 214.265625 191.578125 214.304688 191.476562 C 214.324219 191.429688 214.367188 191.308594 214.421875 191.152344 C 214.640625 190.546875 214.800781 190.109375 214.929688 189.785156 Z M 179.742188 182.222656 L 163.449219 175.976562 L 162.847656 166.34375 L 149.972656 171.582031 L 149.066406 204.125 L 154.207031 196.433594 L 177.789062 194.375 C 177.84375 194.328125 177.902344 194.285156 177.964844 194.242188 Z M 176.980469 195.484375 L 154.796875 197.421875 L 149.292969 205.65625 C 153.324219 209.671875 157.367188 211.027344 161 209.566406 C 164.378906 208.210938 166.628906 204.578125 166.636719 202.773438 L 166.640625 202.53125 L 166.785156 202.335938 C 167.246094 201.710938 167.464844 201.335938 167.59375 201.113281 C 167.925781 200.542969 168.128906 200.410156 168.789062 200.320312 C 169.023438 200.289062 169.378906 200.238281 169.976562 200.101562 C 171.628906 199.710938 173.152344 199.007812 174.378906 198.074219 C 174.480469 197.992188 174.574219 197.925781 174.664062 197.863281 C 174.773438 197.78125 174.875 197.710938 174.980469 197.613281 C 175.828125 196.839844 176.453125 196.171875 176.980469 195.484375 Z M 148.925781 171.765625 L 130.257812 172.367188 C 130.097656 172.605469 129.914062 172.796875 129.703125 173.011719 C 129.179688 173.546875 128.390625 174.351562 127.296875 176.734375 C 126.53125 178.417969 126.183594 181.214844 126.507812 183.097656 C 126.675781 184.050781 126.890625 184.742188 127.164062 185.621094 L 127.242188 185.875 C 127.429688 186.46875 128.015625 187.507812 128.4375 188.085938 L 130.675781 190.621094 C 130.933594 190.851562 131.160156 191.011719 131.359375 191.15625 C 131.824219 191.480469 132.347656 191.851562 132.347656 192.722656 C 132.300781 195.339844 132.910156 197.757812 134.070312 199.546875 L 135.671875 201.683594 C 136.523438 202.613281 138.207031 203.925781 139.46875 204.445312 C 141.539062 205.277344 144.667969 205.945312 146.628906 205.433594 L 146.871094 205.363281 C 147.210938 205.265625 147.582031 205.164062 147.996094 205.144531 Z M 129.117188 170.179688 C 129.167969 170.214844 129.257812 170.257812 129.347656 170.304688 C 129.578125 170.421875 129.855469 170.5625 130.082031 170.769531 L 152.828125 148.640625 L 130.828125 153.542969 L 130.777344 153.609375 C 130.628906 153.800781 130.476562 153.898438 130.367188 153.96875 C 130.339844 153.988281 130.304688 154.007812 130.269531 154.035156 L 130.195312 154.082031 C 130.105469 154.132812 130.039062 154.164062 129.984375 154.195312 C 129.886719 154.242188 129.875 154.25 129.765625 154.335938 C 129.546875 154.515625 129.359375 154.691406 129.203125 154.867188 L 129.132812 154.949219 L 129.039062 155.011719 C 126.453125 156.628906 124.910156 159.414062 124.910156 162.449219 C 124.910156 165.054688 126.050781 167.5 128.035156 169.167969 L 128.132812 169.265625 C 128.421875 169.617188 128.761719 169.933594 129.117188 170.179688 Z M 130.898438 152.464844 L 153.980469 147.320312 L 153.953125 125.890625 C 153.183594 125.832031 152.417969 126.085938 151.828125 126.601562 L 151.566406 126.785156 L 151.40625 126.8125 C 148.285156 127.292969 145.640625 129.445312 144.507812 132.425781 L 144.441406 132.597656 L 144.300781 132.71875 C 143.433594 133.480469 142.695312 134.441406 142.109375 135.582031 C 142.050781 135.695312 142 135.789062 141.964844 135.886719 L 141.863281 136.152344 L 141.613281 136.285156 C 139.394531 137.429688 137.285156 139.148438 135.503906 141.257812 C 132.511719 144.792969 130.824219 148.933594 130.898438 152.464844 Z M 131.019531 171.304688 L 149.351562 170.714844 L 163.097656 165.121094 L 175.101562 158.703125 L 154.601562 148.367188 Z M 174.484375 160.214844 L 163.863281 165.890625 L 164.375 174.136719 Z M 164.765625 175.371094 L 180.039062 181.226562 L 184.746094 170.375 L 176.246094 159.554688 Z M 175.015625 140.105469 C 174.773438 140.355469 174.5625 140.628906 174.382812 140.925781 L 154.996094 126.253906 L 155.023438 147.113281 L 173.71875 143.679688 C 173.742188 144.03125 173.804688 144.371094 173.90625 144.699219 L 156.113281 147.96875 L 175.816406 157.902344 L 177.25 147.894531 C 177.582031 147.976562 177.925781 148.03125 178.28125 148.039062 L 176.777344 158.546875 L 185.542969 169.710938 L 202.230469 165.332031 L 181.566406 146.84375 C 181.824219 146.613281 182.058594 146.355469 182.261719 146.074219 L 203.039062 164.664062 L 208.320312 147.953125 C 208.632812 148.09375 208.964844 148.199219 209.3125 148.269531 L 204.316406 164.078125 L 222.636719 149.046875 C 222.824219 149.335938 223.046875 149.605469 223.296875 149.847656 L 204.4375 165.324219 L 225.921875 170.308594 L 235.417969 141.175781 L 230.765625 144.296875 C 230.601562 143.988281 230.40625 143.703125 230.183594 143.4375 L 235.628906 139.785156 C 235.515625 135.769531 232.007812 131.164062 226.84375 128.277344 C 223.417969 126.367188 219.695312 125.449219 216.480469 125.691406 L 224.90625 142.082031 C 224.578125 142.207031 224.269531 142.363281 223.980469 142.554688 L 215.699219 126.449219 L 212.011719 139.3125 C 211.691406 139.179688 211.355469 139.085938 211.007812 139.03125 L 214.914062 125.417969 L 214.878906 125.332031 C 214.226562 123.796875 213.144531 122.472656 211.746094 121.503906 C 209.230469 119.78125 205.980469 119.484375 203.171875 120.695312 L 209.25 139.0625 C 208.90625 139.132812 208.578125 139.246094 208.265625 139.386719 L 202.226562 121.148438 L 182.15625 140.472656 C 181.941406 140.199219 181.703125 139.945312 181.4375 139.726562 L 201.589844 120.320312 C 201.101562 119.761719 200.554688 119.269531 199.949219 118.863281 C 197.152344 116.929688 193.566406 116.757812 190.582031 118.40625 L 190.355469 118.53125 L 189.800781 118.441406 L 189.640625 118.300781 C 189.4375 118.121094 189.222656 117.953125 188.925781 117.738281 C 185.875 115.652344 181.78125 115.6875 178.757812 117.828125 L 178.609375 117.933594 L 178.433594 117.960938 C 178.097656 118.007812 177.808594 118.0625 177.53125 118.136719 C 177.191406 118.222656 176.960938 118.285156 176.789062 118.335938 L 178.546875 138.652344 C 178.507812 138.652344 178.46875 138.648438 178.429688 138.648438 C 178.117188 138.648438 177.808594 138.679688 177.511719 138.738281 L 175.746094 118.375 C 172.75 117.519531 169.15625 117.566406 165.582031 118.535156 C 161.09375 119.75 157.308594 122.230469 155.347656 125.21875 Z M 225.257812 171.21875 L 203.648438 166.203125 L 203.546875 166.511719 L 203.15625 166.160156 L 187.335938 170.3125 L 217.929688 178.789062 Z M 220.402344 177.726562 L 242.992188 167.261719 L 226.539062 171.382812 Z M 236.660156 140.734375 L 227.054688 170.1875 L 247.535156 165.058594 C 249.054688 161.21875 247.75 156.921875 244.332031 154.578125 C 244.039062 154.363281 243.730469 154.175781 243.339844 153.976562 L 243.210938 153.910156 L 243.019531 153.679688 C 242.980469 153.628906 242.9375 153.578125 242.890625 153.53125 L 242.535156 153.175781 L 242.730469 152.71875 C 244.359375 148.890625 243.046875 144.398438 239.601562 142.039062 C 238.699219 141.414062 237.707031 140.980469 236.660156 140.734375 Z M 250.589844 179.359375 C 250.394531 180.644531 250.070312 181.96875 249.59375 183.421875 C 249.433594 183.890625 249.226562 184.296875 249.027344 184.691406 C 248.90625 184.933594 248.78125 185.171875 248.679688 185.414062 C 247.609375 187.914062 245.269531 190.640625 242.425781 192.714844 L 242.203125 192.875 C 241.164062 193.617188 239.945312 194.296875 238.769531 194.796875 C 238.574219 194.886719 238.472656 194.925781 238.238281 195.011719 L 238.140625 195.046875 C 237.949219 195.121094 237.734375 195.195312 237.515625 195.269531 C 237.339844 195.332031 237.164062 195.390625 236.992188 195.457031 C 236.0625 195.796875 235.269531 195.957031 234.355469 196.140625 L 234.269531 196.15625 C 231.726562 196.703125 228.855469 196.667969 226.191406 196.050781 L 223.996094 195.417969 C 223.710938 195.328125 223.554688 195.238281 223.441406 195.171875 C 223.40625 195.148438 223.371094 195.125 223.316406 195.105469 C 220.792969 194.101562 219.929688 193.476562 217.84375 191.960938 C 217.496094 191.710938 217.109375 191.332031 216.734375 190.96875 C 216.589844 190.832031 216.410156 190.65625 216.246094 190.503906 C 216.085938 190.914062 215.90625 191.421875 215.824219 191.648438 C 215.757812 191.832031 215.707031 191.96875 215.6875 192.023438 C 215.617188 192.203125 215.554688 192.3125 215.488281 192.429688 C 215.453125 192.496094 215.414062 192.5625 215.363281 192.671875 C 214.761719 193.988281 214.085938 195.007812 213.1875 196.226562 C 212.394531 197.328125 211.554688 198.269531 210.546875 199.179688 C 208.957031 200.628906 207.121094 201.867188 205.375 202.664062 C 201.328125 204.53125 196.925781 205.230469 192.980469 204.632812 C 190.234375 204.226562 188.007812 203.539062 186.367188 202.585938 L 183.828125 201.121094 C 182.230469 200.101562 180.59375 198.628906 179.523438 197.265625 C 179.433594 197.148438 179.3125 196.980469 179.179688 196.789062 C 179.03125 196.582031 178.761719 196.199219 178.519531 195.90625 L 178.457031 195.996094 C 177.816406 196.894531 177.054688 197.730469 175.988281 198.703125 C 175.828125 198.851562 175.679688 198.957031 175.535156 199.0625 C 175.460938 199.117188 175.378906 199.171875 175.289062 199.246094 C 173.890625 200.3125 172.171875 201.105469 170.320312 201.542969 C 169.648438 201.699219 169.234375 201.753906 168.988281 201.785156 C 168.960938 201.789062 168.9375 201.792969 168.914062 201.796875 C 168.90625 201.816406 168.894531 201.835938 168.878906 201.855469 C 168.75 202.082031 168.535156 202.449219 168.113281 203.03125 C 167.9375 205.382812 165.46875 209.367188 161.554688 210.9375 C 160.570312 211.335938 159.390625 211.625 158.050781 211.625 C 155.410156 211.625 152.136719 210.503906 148.453125 206.914062 L 147.925781 207.703125 L 147.953125 206.644531 C 147.75 206.667969 147.535156 206.714844 147.289062 206.785156 C 147.195312 206.8125 147.101562 206.839844 147.007812 206.863281 C 144.703125 207.464844 141.28125 206.769531 138.90625 205.816406 C 137.417969 205.207031 135.519531 203.726562 134.542969 202.648438 L 134.5 202.597656 L 132.851562 200.390625 C 131.503906 198.316406 130.808594 195.601562 130.859375 192.710938 C 130.859375 192.660156 130.851562 192.636719 130.851562 192.636719 C 130.820312 192.589844 130.636719 192.457031 130.5 192.359375 C 130.269531 192.199219 129.980469 191.996094 129.640625 191.683594 L 129.585938 191.628906 L 127.253906 188.984375 C 126.757812 188.308594 126.066406 187.09375 125.820312 186.3125 L 125.742188 186.058594 C 125.464844 185.167969 125.226562 184.398438 125.039062 183.347656 C 124.667969 181.179688 125.058594 178.074219 125.941406 176.121094 C 127.148438 173.503906 128.042969 172.585938 128.640625 171.980469 C 128.730469 171.886719 128.8125 171.804688 128.878906 171.730469 C 128.804688 171.691406 128.730469 171.652344 128.675781 171.625 C 128.519531 171.546875 128.375 171.46875 128.269531 171.398438 C 127.808594 171.074219 127.394531 170.691406 127.027344 170.257812 C 124.734375 168.308594 123.421875 165.46875 123.421875 162.449219 C 123.421875 158.9375 125.191406 155.714844 128.15625 153.816406 C 128.347656 153.605469 128.574219 153.390625 128.828125 153.1875 C 129.042969 153.015625 129.152344 152.953125 129.308594 152.875 C 129.339844 152.859375 129.378906 152.839844 129.421875 152.816406 C 129.230469 148.855469 131.058594 144.210938 134.363281 140.304688 C 136.207031 138.125 138.390625 136.328125 140.691406 135.09375 C 140.71875 135.039062 140.75 134.976562 140.78125 134.910156 C 141.425781 133.660156 142.234375 132.589844 143.183594 131.730469 C 144.515625 128.402344 147.476562 125.992188 150.980469 125.382812 C 151.859375 124.667969 152.972656 124.324219 154.097656 124.410156 C 156.253906 121.128906 160.359375 118.414062 165.191406 117.105469 C 169.046875 116.0625 172.953125 116.011719 176.21875 116.960938 C 176.402344 116.90625 176.683594 116.824219 177.160156 116.703125 C 177.433594 116.632812 177.726562 116.570312 178.042969 116.523438 C 181.5625 114.121094 186.253906 114.117188 189.78125 116.527344 C 189.929688 116.632812 190.09375 116.757812 190.273438 116.898438 C 193.667969 115.207031 197.65625 115.476562 200.789062 117.640625 C 201.472656 118.097656 202.105469 118.652344 202.664062 119.285156 L 202.695312 119.257812 L 202.703125 119.28125 C 205.953125 117.929688 209.6875 118.296875 212.59375 120.289062 C 214.066406 121.308594 215.238281 122.667969 216.011719 124.242188 C 219.597656 123.878906 223.773438 124.867188 227.570312 126.988281 C 232.890625 129.957031 236.484375 134.511719 237.042969 138.839844 L 237.34375 138.636719 L 237.125 139.308594 C 238.308594 139.605469 239.425781 140.113281 240.449219 140.824219 C 244.320312 143.476562 245.886719 148.445312 244.292969 152.804688 C 244.636719 152.992188 244.929688 153.175781 245.195312 153.375 C 249.152344 156.085938 250.683594 161.078125 248.941406 165.546875 C 248.960938 165.953125 248.957031 166.359375 248.929688 166.777344 C 248.914062 167.046875 248.886719 167.234375 248.863281 167.382812 C 248.832031 167.597656 248.832031 167.597656 248.9375 167.855469 C 249.644531 169.503906 250.53125 172.042969 250.699219 173.75 C 250.894531 175.851562 250.863281 177.476562 250.589844 179.359375 Z M 214.75 144.957031 L 221.882812 146.191406 C 221.902344 145.839844 221.960938 145.496094 222.054688 145.167969 L 214.921875 143.9375 C 214.902344 144.289062 214.84375 144.632812 214.75 144.957031 Z M 183.105469 143.90625 L 205.519531 144.125 C 205.503906 143.96875 205.496094 143.808594 205.496094 143.652344 C 205.496094 143.460938 205.507812 143.273438 205.53125 143.085938 L 183.121094 142.867188 C 183.136719 143.023438 183.144531 143.179688 183.144531 143.339844 C 183.144531 143.53125 183.128906 143.71875 183.105469 143.90625 Z M 210.226562 148.605469 C 212.964844 148.605469 215.1875 146.394531 215.1875 143.648438 C 215.1875 140.921875 212.964844 138.710938 210.226562 138.710938 C 207.46875 138.710938 205.246094 140.921875 205.246094 143.648438 C 205.246094 146.394531 207.46875 148.605469 210.226562 148.605469 Z M 154.503906 151.304688 C 156.480469 151.304688 158.101562 149.703125 158.101562 147.738281 C 158.101562 145.769531 156.480469 144.15625 154.503906 144.15625 C 152.527344 144.15625 150.90625 145.769531 150.90625 147.738281 C 150.90625 149.703125 152.527344 151.304688 154.503906 151.304688 Z M 154.503906 152.429688 C 157.105469 152.429688 159.230469 150.328125 159.230469 147.738281 C 159.230469 145.148438 157.105469 143.027344 154.503906 143.027344 C 151.902344 143.027344 149.789062 145.148438 149.789062 147.738281 C 149.789062 150.328125 151.902344 152.429688 154.503906 152.429688 Z M 178.433594 148.226562 C 175.734375 148.226562 173.519531 146.023438 173.519531 143.335938 C 173.519531 140.648438 175.734375 138.464844 178.433594 138.464844 C 181.132812 138.464844 183.324219 140.648438 183.324219 143.335938 C 183.324219 146.023438 181.132812 148.226562 178.433594 148.226562 " fill-opacity="1" fill-rule="nonzero"/></g><g fill="#dd6f6f" fill-opacity="1"><g transform="translate(65.075328, 258.136461)"><g><path d="M 24.054688 0.351562 C 34.230469 -2.410156 34.523438 -10.941406 34.289062 -16.292969 C 34.230469 -17.585938 33.464844 -18.234375 32.113281 -18.410156 L 23.761719 -18.644531 C 22.527344 -18.820312 21.410156 -17.820312 21.351562 -16.644531 C 21.351562 -15.820312 21.230469 -12.878906 19.996094 -12.175781 C 16.292969 -10.585938 14.527344 -13.820312 14.46875 -19.996094 L 14.46875 -20.292969 C 14.46875 -26.644531 15.234375 -31.464844 18.996094 -29.878906 C 20.292969 -29.171875 20.410156 -26.171875 20.410156 -25.46875 C 20.46875 -24.230469 21.585938 -23.230469 22.820312 -23.410156 L 31.171875 -23.644531 C 32.464844 -23.820312 33.230469 -24.46875 33.289062 -25.703125 C 33.582031 -31.171875 33.289062 -39.757812 23.054688 -42.40625 C 11.527344 -45.640625 2.410156 -38.40625 0.410156 -26.171875 C -0.707031 -18.878906 0.410156 -10.820312 4.175781 -5.644531 C 8.527344 0.175781 16.878906 2.292969 24.054688 0.351562 Z M 24.054688 0.351562 "/></g></g></g><g fill="#dd6f6f" fill-opacity="1"><g transform="translate(101.76949, 258.136461)"><g><path d="M 11.878906 -0.234375 C 16.175781 1.234375 23.113281 0.824219 27.113281 -2 C 34.820312 -7.585938 35.054688 -20.171875 35.054688 -33.582031 C 35.054688 -42.816406 34.582031 -41.699219 22.9375 -41.699219 C 20.527344 -41.699219 20.820312 -39.171875 20.9375 -35.9375 C 20.9375 -31.9375 20.996094 -25.527344 20.703125 -20.527344 C 20.527344 -16.054688 17.996094 -10.941406 15.761719 -14.234375 C 14.585938 -16.117188 14.761719 -32.523438 14.996094 -39.464844 C 14.996094 -40.699219 13.996094 -41.699219 12.820312 -41.582031 L 2.527344 -41.582031 C 1.292969 -41.464844 0.53125 -40.757812 0.410156 -39.582031 C -0.707031 -19.527344 -0.175781 -4.117188 11.878906 -0.234375 Z M 11.878906 -0.234375 "/></g></g></g><g fill="#dd6f6f" fill-opacity="1"><g transform="translate(139.169306, 258.136461)"><g><path d="M 31.289062 0.292969 C 33.523438 0.351562 34.113281 -0.824219 33.171875 -2.707031 C 30.996094 -7.058594 29.464844 -10.292969 28.230469 -12.820312 C 29.582031 -13.585938 30.761719 -14.585938 31.761719 -15.820312 C 34.757812 -19.46875 34.289062 -27.585938 33.464844 -31.464844 C 31.230469 -41.640625 22.761719 -41.464844 10.351562 -41.347656 L 2 -41.347656 C 0.941406 -41.347656 0 -40.113281 0 -39.054688 L 0.117188 -2.292969 C 0.117188 -1 1 0 2.117188 0 L 12.351562 -0.0585938 C 13.351562 -0.0585938 14.527344 -1.058594 14.410156 -2.410156 L 14.175781 -9.882812 L 15.292969 -9.882812 L 18.878906 -1.882812 C 19.585938 -0.589844 20.292969 0.234375 21.527344 0.234375 C 25.9375 0.234375 28.996094 0.234375 31.289062 0.292969 Z M 13.644531 -27.878906 C 16.644531 -27.820312 19.113281 -28.054688 19.9375 -27.40625 C 22.351562 -25.40625 20.820312 -21.761719 16.761719 -21.761719 L 13.820312 -21.761719 Z M 13.644531 -27.878906 "/></g></g></g><g fill="#dd6f6f" fill-opacity="1"><g transform="translate(175.628246, 258.136461)"><g><path d="M 2.058594 0.589844 C 13.820312 1.234375 23.46875 1.292969 27.761719 -2.175781 C 29.761719 -3.824219 30.996094 -6.175781 31.582031 -8.644531 C 32.9375 -14.234375 30.820312 -19.054688 25.171875 -21.761719 C 23.171875 -22.644531 20.9375 -23.410156 19.527344 -24.113281 C 17.054688 -25.347656 17.644531 -27.347656 19.527344 -28.230469 C 21.171875 -28.996094 25.40625 -28.464844 28.113281 -28.464844 C 29.703125 -28.464844 30.644531 -29.230469 30.644531 -30.582031 C 30.761719 -38.757812 30.878906 -39.875 30.171875 -40.757812 C 29.113281 -42.050781 19.820312 -42.050781 17.175781 -41.933594 C 12.9375 -41.757812 7.527344 -41.40625 4.292969 -38.816406 C 1 -36.230469 0 -32.820312 0 -28.585938 C 0 -22.878906 3.292969 -20.171875 10.878906 -17.351562 C 14.820312 -15.878906 14.703125 -12.878906 10.703125 -12.703125 C 7.527344 -12.585938 0.46875 -13.820312 0.46875 -10.878906 L 0.46875 -2.175781 C 0.46875 -0.765625 0.824219 0.292969 2.058594 0.589844 Z M 2.058594 0.589844 "/></g></g></g><g fill="#dd6f6f" fill-opacity="1"><g transform="translate(209.970224, 258.136461)"><g><path d="M 12.9375 0 C 14.175781 0 15.234375 -1.058594 15.234375 -2.292969 L 15.9375 -38.816406 C 15.996094 -40.171875 14.820312 -41.171875 13.644531 -41.171875 L 2.351562 -41.230469 C 1.117188 -41.230469 0.117188 -40.289062 0.117188 -38.933594 L 0 -2.292969 C 0 -1.117188 1.058594 0 2.234375 0 Z M 12.9375 0 "/></g></g></g><g fill="#dd6f6f" fill-opacity="1"><g transform="translate(228.2585, 258.136461)"><g><path d="M 9.410156 0 L 20.703125 -0.0585938 C 21.292969 -0.0585938 21.820312 -0.292969 22.351562 -0.765625 C 22.820312 -1.175781 23.054688 -1.765625 22.996094 -2.410156 L 22.878906 -27.230469 L 27.644531 -27.230469 C 28.878906 -27.347656 29.703125 -28.171875 29.820312 -29.40625 L 30.113281 -39.464844 C 30.171875 -40.757812 29.113281 -41.875 27.820312 -41.875 L 2.410156 -41.699219 C 1.117188 -41.699219 0.234375 -40.699219 0.117188 -39.40625 L 0 -29.464844 C 0 -28.113281 1.117188 -27.054688 2.351562 -27.171875 L 7.46875 -27.171875 L 7.175781 -2.292969 C 7.175781 -1.648438 7.410156 -1.058594 7.824219 -0.648438 C 8.234375 -0.234375 8.761719 0 9.410156 0 Z M 9.410156 0 "/></g></g></g><g fill="#dd6f6f" fill-opacity="1"><g transform="translate(260.718725, 258.136461)"><g><path d="M 11.644531 -0.0585938 C 15.9375 1.292969 22.761719 0.941406 26.761719 -1.824219 C 32.640625 -5.824219 34.464844 -12.117188 34.464844 -19.292969 C 34.113281 -28.703125 32.640625 -35.640625 26.761719 -39.699219 C 22.761719 -42.40625 15.9375 -42.816406 11.644531 -41.40625 C 3.175781 -38.523438 0.351562 -30.347656 0 -18.820312 C 0.351562 -7.292969 3.117188 -2.824219 11.644531 -0.0585938 Z M 13.527344 -20.171875 C 13.46875 -33.054688 21.054688 -32.113281 21.054688 -19.703125 C 20.703125 -10.117188 13.644531 -10.410156 13.527344 -20.171875 Z M 13.527344 -20.171875 "/></g></g></g><g fill="#dd6f6f" fill-opacity="1"><g transform="translate(297.530498, 258.136461)"><g><path d="M 2.058594 0.589844 C 13.820312 1.234375 23.46875 1.292969 27.761719 -2.175781 C 29.761719 -3.824219 30.996094 -6.175781 31.582031 -8.644531 C 32.9375 -14.234375 30.820312 -19.054688 25.171875 -21.761719 C 23.171875 -22.644531 20.9375 -23.410156 19.527344 -24.113281 C 17.054688 -25.347656 17.644531 -27.347656 19.527344 -28.230469 C 21.171875 -28.996094 25.40625 -28.464844 28.113281 -28.464844 C 29.703125 -28.464844 30.644531 -29.230469 30.644531 -30.582031 C 30.761719 -38.757812 30.878906 -39.875 30.171875 -40.757812 C 29.113281 -42.050781 19.820312 -42.050781 17.175781 -41.933594 C 12.9375 -41.757812 7.527344 -41.40625 4.292969 -38.816406 C 1 -36.230469 0 -32.820312 0 -28.585938 C 0 -22.878906 3.292969 -20.171875 10.878906 -17.351562 C 14.820312 -15.878906 14.703125 -12.878906 10.703125 -12.703125 C 7.527344 -12.585938 0.46875 -13.820312 0.46875 -10.878906 L 0.46875 -2.175781 C 0.46875 -0.765625 0.824219 0.292969 2.058594 0.589844 Z M 2.058594 0.589844 "/></g></g></g><g fill="#323232" fill-opacity="1"><g transform="translate(94.143023, 278.50466)"><g><path d="M 1.703125 0.078125 C 1.941406 0.078125 2.144531 -0.0078125 2.304688 -0.167969 C 2.457031 -0.320312 2.554688 -0.53125 2.554688 -0.761719 L 2.554688 -2.054688 L 4.101562 -2.054688 C 4.96875 -2.054688 5.773438 -2.394531 6.363281 -2.976562 C 6.953125 -3.558594 7.296875 -4.359375 7.296875 -5.210938 C 7.296875 -6.152344 6.957031 -6.9375 6.363281 -7.527344 C 5.773438 -8.109375 4.96875 -8.457031 4.101562 -8.457031 L 1.703125 -8.457031 C 1.472656 -8.457031 1.253906 -8.359375 1.101562 -8.207031 C 0.949219 -8.054688 0.851562 -7.835938 0.851562 -7.605469 L 0.851562 -0.761719 C 0.851562 -0.53125 0.949219 -0.320312 1.101562 -0.167969 C 1.253906 -0.0117188 1.472656 0.078125 1.703125 0.078125 Z M 2.554688 -3.757812 L 2.554688 -6.746094 L 4.128906 -6.746094 C 4.507812 -6.746094 4.882812 -6.582031 5.148438 -6.304688 C 5.410156 -6.042969 5.582031 -5.601562 5.582031 -5.210938 C 5.582031 -4.832031 5.414062 -4.472656 5.152344 -4.199219 C 4.890625 -3.925781 4.511719 -3.757812 4.128906 -3.757812 Z M 2.554688 -3.757812 "/></g></g></g><g fill="#323232" fill-opacity="1"><g transform="translate(101.698171, 278.50466)"><g><path d="M 5.460938 0 C 5.703125 0 5.902344 -0.078125 6.0625 -0.238281 C 6.222656 -0.390625 6.304688 -0.589844 6.304688 -0.839844 C 6.304688 -1.074219 6.222656 -1.28125 6.0625 -1.441406 C 5.894531 -1.605469 5.695312 -1.691406 5.460938 -1.691406 L 2.554688 -1.695312 L 2.554688 -7.628906 C 2.554688 -7.867188 2.472656 -8.066406 2.304688 -8.230469 C 2.136719 -8.390625 1.941406 -8.46875 1.703125 -8.46875 C 1.472656 -8.46875 1.253906 -8.378906 1.101562 -8.230469 C 0.933594 -8.066406 0.851562 -7.867188 0.851562 -7.628906 L 0.851562 -0.839844 C 0.851562 -0.609375 0.929688 -0.417969 1.089844 -0.257812 C 1.234375 -0.101562 1.441406 -0.0078125 1.664062 0 Z M 5.460938 0 "/></g></g></g><g fill="#323232" fill-opacity="1"><g transform="translate(108.460061, 278.50466)"><g><path d="M 1.664062 0.0625 C 1.894531 0.0625 2.125 -0.03125 2.285156 -0.1875 C 2.457031 -0.34375 2.542969 -0.550781 2.542969 -0.800781 L 2.542969 -2.136719 L 5.269531 -2.136719 L 5.269531 -0.800781 C 5.269531 -0.558594 5.359375 -0.351562 5.53125 -0.1875 C 5.683594 -0.03125 5.902344 0.0625 6.152344 0.0625 C 6.382812 0.0625 6.613281 -0.03125 6.773438 -0.1875 C 6.945312 -0.359375 7.027344 -0.5625 7.027344 -0.800781 L 7.027344 -5 C 7.027344 -6.050781 6.726562 -6.925781 6.183594 -7.523438 C 5.625 -8.128906 4.839844 -8.457031 3.871094 -8.457031 C 2.917969 -8.457031 2.136719 -8.117188 1.601562 -7.507812 C 1.070312 -6.914062 0.789062 -6.074219 0.789062 -5.109375 L 0.789062 -0.800781 C 0.789062 -0.550781 0.871094 -0.34375 1.042969 -0.1875 C 1.214844 -0.0195312 1.425781 0.0625 1.664062 0.0625 Z M 2.542969 -3.886719 L 2.542969 -4.992188 C 2.542969 -6.175781 3.015625 -6.707031 3.910156 -6.707031 C 4.800781 -6.707031 5.269531 -6.09375 5.269531 -5 L 5.269531 -3.886719 Z M 2.542969 -3.886719 "/></g></g></g><g fill="#323232" fill-opacity="1"><g transform="translate(116.2711, 278.50466)"><g><path d="M 3.4375 0.078125 C 3.667969 0.078125 3.886719 -0.0117188 4.046875 -0.167969 C 4.199219 -0.320312 4.296875 -0.53125 4.296875 -0.761719 L 4.296875 -6.761719 L 5.890625 -6.761719 C 6.121094 -6.761719 6.335938 -6.847656 6.492188 -7.003906 C 6.644531 -7.15625 6.742188 -7.367188 6.742188 -7.597656 C 6.742188 -7.828125 6.644531 -8.046875 6.492188 -8.207031 C 6.335938 -8.359375 6.121094 -8.457031 5.890625 -8.457031 L 1 -8.457031 C 0.761719 -8.457031 0.5625 -8.371094 0.398438 -8.207031 C 0.242188 -8.054688 0.152344 -7.839844 0.152344 -7.609375 C 0.152344 -7.375 0.238281 -7.167969 0.398438 -7.007812 C 0.5625 -6.84375 0.761719 -6.761719 1 -6.761719 L 2.625 -6.761719 L 2.625 -0.761719 C 2.625 -0.519531 2.703125 -0.320312 2.855469 -0.167969 C 3.007812 -0.0078125 3.199219 0.078125 3.4375 0.078125 Z M 3.4375 0.078125 "/></g></g></g><g fill="#323232" fill-opacity="1"><g transform="translate(123.180126, 278.50466)"><g><path d="M 1.664062 0.0625 C 1.894531 0.0625 2.125 -0.03125 2.285156 -0.1875 C 2.457031 -0.34375 2.542969 -0.550781 2.542969 -0.800781 L 2.542969 -2.136719 L 5.269531 -2.136719 L 5.269531 -0.800781 C 5.269531 -0.558594 5.359375 -0.351562 5.53125 -0.1875 C 5.683594 -0.03125 5.902344 0.0625 6.152344 0.0625 C 6.382812 0.0625 6.613281 -0.03125 6.773438 -0.1875 C 6.945312 -0.359375 7.027344 -0.5625 7.027344 -0.800781 L 7.027344 -5 C 7.027344 -6.050781 6.726562 -6.925781 6.183594 -7.523438 C 5.625 -8.128906 4.839844 -8.457031 3.871094 -8.457031 C 2.917969 -8.457031 2.136719 -8.117188 1.601562 -7.507812 C 1.070312 -6.914062 0.789062 -6.074219 0.789062 -5.109375 L 0.789062 -0.800781 C 0.789062 -0.550781 0.871094 -0.34375 1.042969 -0.1875 C 1.214844 -0.0195312 1.425781 0.0625 1.664062 0.0625 Z M 2.542969 -3.886719 L 2.542969 -4.992188 C 2.542969 -6.175781 3.015625 -6.707031 3.910156 -6.707031 C 4.800781 -6.707031 5.269531 -6.09375 5.269531 -5 L 5.269531 -3.886719 Z M 2.542969 -3.886719 "/></g></g></g><g fill="#323232" fill-opacity="1"><g transform="translate(130.991165, 278.50466)"><g><path d="M 1.703125 0.0703125 C 1.941406 0.0703125 2.144531 -0.0117188 2.304688 -0.171875 C 2.457031 -0.328125 2.554688 -0.539062 2.554688 -0.769531 L 2.554688 -3.105469 L 4.589844 -3.105469 C 4.828125 -3.105469 5.03125 -3.179688 5.191406 -3.335938 C 5.34375 -3.488281 5.441406 -3.695312 5.441406 -3.917969 C 5.441406 -4.15625 5.359375 -4.351562 5.191406 -4.519531 C 5.03125 -4.679688 4.828125 -4.761719 4.589844 -4.761719 L 2.554688 -4.761719 L 2.554688 -6.746094 L 5.441406 -6.746094 C 5.679688 -6.746094 5.875 -6.832031 6.042969 -6.996094 C 6.191406 -7.148438 6.28125 -7.375 6.28125 -7.605469 C 6.28125 -7.835938 6.191406 -8.054688 6.042969 -8.207031 C 5.875 -8.371094 5.679688 -8.457031 5.441406 -8.457031 L 1.703125 -8.457031 C 1.414062 -8.457031 1.203125 -8.367188 1.054688 -8.179688 C 0.929688 -8.027344 0.859375 -7.824219 0.851562 -7.636719 L 0.851562 -0.769531 C 0.851562 -0.539062 0.941406 -0.328125 1.09375 -0.171875 C 1.253906 -0.0117188 1.460938 0.0703125 1.703125 0.0703125 Z M 1.703125 0.0703125 "/></g></g></g><g fill="#323232" fill-opacity="1"><g transform="translate(137.330836, 278.50466)"><g><path d="M 3.980469 0.0703125 C 4.832031 0.0703125 5.632812 -0.261719 6.222656 -0.832031 C 6.816406 -1.414062 7.167969 -2.234375 7.167969 -3.179688 L 7.167969 -5.21875 C 7.167969 -6.164062 6.816406 -6.984375 6.222656 -7.574219 C 5.632812 -8.140625 4.832031 -8.46875 3.980469 -8.46875 C 3.128906 -8.46875 2.324219 -8.140625 1.734375 -7.574219 C 1.140625 -6.984375 0.789062 -6.164062 0.789062 -5.21875 L 0.789062 -3.179688 C 0.789062 -2.234375 1.140625 -1.414062 1.734375 -0.832031 C 2.324219 -0.261719 3.128906 0.0703125 3.980469 0.0703125 Z M 3.980469 -1.652344 C 3.589844 -1.652344 3.21875 -1.78125 2.957031 -2.015625 C 2.65625 -2.292969 2.503906 -2.675781 2.503906 -3.167969 L 2.503906 -5.230469 C 2.503906 -5.734375 2.667969 -6.125 2.957031 -6.382812 C 3.21875 -6.617188 3.589844 -6.746094 3.980469 -6.746094 C 4.371094 -6.746094 4.738281 -6.632812 5 -6.382812 C 5.289062 -6.125 5.453125 -5.734375 5.453125 -5.230469 L 5.453125 -3.167969 C 5.453125 -2.675781 5.300781 -2.292969 5 -2.015625 C 4.738281 -1.765625 4.371094 -1.652344 3.980469 -1.652344 Z M 3.980469 -1.652344 "/></g></g></g><g fill="#323232" fill-opacity="1"><g transform="translate(145.289012, 278.50466)"><g><path d="M 1.640625 0.0117188 C 1.875 0.0117188 2.082031 -0.0703125 2.242188 -0.230469 C 2.394531 -0.382812 2.488281 -0.59375 2.488281 -0.824219 L 2.488281 -2.0625 L 3.636719 -2.0625 L 5.394531 -0.238281 C 5.542969 -0.0703125 5.734375 0.0117188 5.972656 0.0117188 C 6.203125 0.0117188 6.402344 -0.0703125 6.574219 -0.242188 C 6.734375 -0.402344 6.832031 -0.621094 6.832031 -0.84375 C 6.832031 -1.070312 6.746094 -1.273438 6.585938 -1.445312 L 5.613281 -2.472656 C 6.101562 -2.734375 6.492188 -3.109375 6.785156 -3.605469 C 7.078125 -4.097656 7.226562 -4.632812 7.226562 -5.21875 C 7.226562 -6.15625 6.894531 -6.9375 6.300781 -7.535156 C 5.714844 -8.117188 4.910156 -8.457031 4.039062 -8.457031 L 1.640625 -8.457031 C 1.402344 -8.457031 1.203125 -8.371094 1.035156 -8.207031 C 0.882812 -8.054688 0.789062 -7.835938 0.789062 -7.605469 L 0.789062 -0.824219 C 0.789062 -0.59375 0.882812 -0.382812 1.035156 -0.230469 C 1.195312 -0.0703125 1.402344 0.0117188 1.640625 0.0117188 Z M 2.488281 -3.765625 L 2.488281 -6.746094 L 4.066406 -6.746094 C 4.441406 -6.746094 4.8125 -6.585938 5.089844 -6.3125 C 5.351562 -6.050781 5.523438 -5.609375 5.523438 -5.21875 C 5.523438 -4.839844 5.363281 -4.488281 5.089844 -4.207031 C 4.828125 -3.929688 4.449219 -3.765625 4.066406 -3.765625 Z M 2.488281 -3.765625 "/></g></g></g><g fill="#323232" fill-opacity="1"><g transform="translate(152.927324, 278.50466)"><g><path d="M 1.601562 0 C 1.832031 0 2.0625 -0.0976562 2.222656 -0.25 C 2.394531 -0.410156 2.476562 -0.613281 2.476562 -0.863281 L 2.476562 -5.769531 C 2.476562 -6 2.578125 -6.230469 2.738281 -6.386719 C 2.914062 -6.5625 3.117188 -6.644531 3.367188 -6.644531 C 3.617188 -6.644531 3.839844 -6.546875 4 -6.386719 C 4.15625 -6.230469 4.25 -6.003906 4.25 -5.753906 L 4.25 -0.878906 C 4.25 -0.632812 4.332031 -0.429688 4.507812 -0.257812 C 4.679688 -0.0820312 4.882812 0 5.128906 0 C 5.363281 0 5.589844 -0.0976562 5.75 -0.257812 C 5.921875 -0.429688 6.003906 -0.632812 6.003906 -0.878906 L 6.003906 -5.78125 C 6.011719 -6.015625 6.101562 -6.222656 6.261719 -6.394531 C 6.421875 -6.5625 6.617188 -6.644531 6.867188 -6.644531 C 7.105469 -6.644531 7.34375 -6.546875 7.503906 -6.386719 C 7.664062 -6.230469 7.769531 -6 7.769531 -5.769531 L 7.769531 -0.863281 C 7.769531 -0.621094 7.859375 -0.417969 8.035156 -0.25 C 8.1875 -0.0976562 8.40625 0 8.65625 0 C 8.886719 0 9.117188 -0.0976562 9.277344 -0.25 C 9.449219 -0.421875 9.53125 -0.628906 9.53125 -0.863281 L 9.53125 -5.832031 C 9.53125 -6.542969 9.242188 -7.207031 8.757812 -7.695312 C 8.269531 -8.179688 7.605469 -8.46875 6.882812 -8.46875 C 6.210938 -8.46875 5.601562 -8.214844 5.121094 -7.769531 C 4.640625 -8.214844 4.027344 -8.46875 3.355469 -8.46875 C 2.632812 -8.46875 1.976562 -8.179688 1.492188 -7.695312 C 1.003906 -7.207031 0.722656 -6.542969 0.722656 -5.832031 L 0.722656 -0.863281 C 0.722656 -0.613281 0.804688 -0.410156 0.980469 -0.25 C 1.152344 -0.0820312 1.363281 0 1.601562 0 Z M 1.601562 0 "/></g></g></g><g fill="#323232" fill-opacity="1"><g transform="translate(163.175714, 278.50466)"><g><path d="M 1.664062 0.0625 C 1.894531 0.0625 2.125 -0.03125 2.285156 -0.1875 C 2.457031 -0.34375 2.542969 -0.550781 2.542969 -0.800781 L 2.542969 -2.136719 L 5.269531 -2.136719 L 5.269531 -0.800781 C 5.269531 -0.558594 5.359375 -0.351562 5.53125 -0.1875 C 5.683594 -0.03125 5.902344 0.0625 6.152344 0.0625 C 6.382812 0.0625 6.613281 -0.03125 6.773438 -0.1875 C 6.945312 -0.359375 7.027344 -0.5625 7.027344 -0.800781 L 7.027344 -5 C 7.027344 -6.050781 6.726562 -6.925781 6.183594 -7.523438 C 5.625 -8.128906 4.839844 -8.457031 3.871094 -8.457031 C 2.917969 -8.457031 2.136719 -8.117188 1.601562 -7.507812 C 1.070312 -6.914062 0.789062 -6.074219 0.789062 -5.109375 L 0.789062 -0.800781 C 0.789062 -0.550781 0.871094 -0.34375 1.042969 -0.1875 C 1.214844 -0.0195312 1.425781 0.0625 1.664062 0.0625 Z M 2.542969 -3.886719 L 2.542969 -4.992188 C 2.542969 -6.175781 3.015625 -6.707031 3.910156 -6.707031 C 4.800781 -6.707031 5.269531 -6.09375 5.269531 -5 L 5.269531 -3.886719 Z M 2.542969 -3.886719 "/></g></g></g><g fill="#323232" fill-opacity="1"><g transform="translate(170.986752, 278.50466)"><g/></g></g><g fill="#323232" fill-opacity="1"><g transform="translate(173.935883, 278.50466)"><g><path d="M 5.460938 0 C 5.695312 0 5.894531 -0.078125 6.0625 -0.238281 C 6.222656 -0.398438 6.300781 -0.59375 6.300781 -0.839844 C 6.300781 -1.070312 6.210938 -1.292969 6.0625 -1.445312 C 5.894531 -1.613281 5.695312 -1.695312 5.460938 -1.695312 L 2.554688 -1.695312 L 2.554688 -3.480469 L 4.730469 -3.480469 C 4.96875 -3.480469 5.171875 -3.558594 5.332031 -3.710938 C 5.5 -3.871094 5.582031 -4.066406 5.582031 -4.300781 C 5.582031 -4.539062 5.5 -4.738281 5.332031 -4.902344 C 5.164062 -5.0625 4.96875 -5.140625 4.730469 -5.140625 L 2.554688 -5.140625 L 2.554688 -6.746094 L 5.460938 -6.746094 C 5.695312 -6.746094 5.894531 -6.832031 6.0625 -6.996094 C 6.210938 -7.148438 6.300781 -7.375 6.300781 -7.605469 C 6.300781 -7.835938 6.210938 -8.054688 6.0625 -8.207031 C 5.894531 -8.371094 5.695312 -8.457031 5.460938 -8.457031 L 1.703125 -8.457031 C 1.464844 -8.457031 1.261719 -8.371094 1.09375 -8.207031 C 0.941406 -8.054688 0.851562 -7.835938 0.851562 -7.605469 L 0.851562 -0.839844 C 0.851562 -0.613281 0.929688 -0.421875 1.082031 -0.261719 C 1.222656 -0.109375 1.410156 -0.0195312 1.640625 0 Z M 5.460938 0 "/></g></g></g><g fill="#323232" fill-opacity="1"><g transform="translate(180.499459, 278.50466)"><g><path d="M 3.96875 0 C 4.832031 0 5.621094 -0.308594 6.191406 -0.863281 C 6.777344 -1.425781 7.117188 -2.234375 7.117188 -3.179688 L 7.117188 -5.28125 C 7.117188 -6.230469 6.777344 -7.035156 6.191406 -7.597656 C 5.621094 -8.15625 4.832031 -8.457031 3.96875 -8.457031 L 1.703125 -8.457031 C 1.472656 -8.457031 1.253906 -8.367188 1.101562 -8.214844 C 0.949219 -8.058594 0.851562 -7.847656 0.851562 -7.617188 L 0.851562 -0.839844 C 0.851562 -0.609375 0.949219 -0.398438 1.101562 -0.242188 C 1.253906 -0.0898438 1.472656 0 1.703125 0 Z M 2.554688 -1.703125 L 2.554688 -6.746094 L 3.96875 -6.746094 C 4.386719 -6.746094 4.71875 -6.636719 4.96875 -6.421875 C 5.253906 -6.164062 5.402344 -5.785156 5.402344 -5.292969 L 5.402344 -3.167969 C 5.402344 -2.675781 5.253906 -2.296875 4.96875 -2.042969 C 4.71875 -1.816406 4.386719 -1.703125 3.96875 -1.703125 Z M 2.554688 -1.703125 "/></g></g></g><g fill="#323232" fill-opacity="1"><g transform="translate(188.265716, 278.50466)"><g><path d="M 3.871094 0.0625 C 4.839844 0.0625 5.625 -0.261719 6.183594 -0.871094 C 6.726562 -1.464844 7.027344 -2.335938 7.027344 -3.386719 L 7.027344 -7.59375 C 7.027344 -7.824219 6.925781 -8.054688 6.773438 -8.207031 C 6.613281 -8.359375 6.382812 -8.457031 6.152344 -8.457031 C 5.902344 -8.457031 5.683594 -8.359375 5.53125 -8.207031 C 5.371094 -8.054688 5.269531 -7.824219 5.269531 -7.59375 L 5.269531 -3.386719 C 5.269531 -2.292969 4.800781 -1.683594 3.910156 -1.683594 C 3.015625 -1.683594 2.542969 -2.214844 2.542969 -3.394531 L 2.542969 -7.59375 C 2.542969 -7.828125 2.445312 -8.054688 2.285156 -8.207031 C 2.125 -8.359375 1.894531 -8.457031 1.664062 -8.457031 C 1.425781 -8.457031 1.214844 -8.371094 1.042969 -8.207031 C 0.882812 -8.054688 0.789062 -7.828125 0.789062 -7.59375 L 0.789062 -3.285156 C 0.789062 -2.316406 1.070312 -1.480469 1.601562 -0.882812 C 2.136719 -0.273438 2.90625 0.0625 3.871094 0.0625 Z M 3.871094 0.0625 "/></g></g></g><g fill="#323232" fill-opacity="1"><g transform="translate(196.076755, 278.50466)"><g><path d="M 3.878906 0.0703125 C 4.230469 0.0703125 4.546875 0.03125 4.8125 -0.0507812 C 5.320312 -0.191406 5.75 -0.449219 6.113281 -0.820312 C 6.496094 -1.222656 6.726562 -1.5625 6.726562 -1.921875 C 6.726562 -2.144531 6.644531 -2.335938 6.476562 -2.503906 C 6.304688 -2.664062 6.09375 -2.746094 5.84375 -2.746094 C 5.59375 -2.746094 5.378906 -2.648438 5.25 -2.453125 C 5.0625 -2.144531 4.949219 -1.992188 4.769531 -1.871094 C 4.546875 -1.722656 4.25 -1.652344 3.878906 -1.652344 C 3.457031 -1.652344 3.125 -1.773438 2.878906 -2.011719 C 2.59375 -2.285156 2.445312 -2.675781 2.445312 -3.167969 L 2.445312 -5.230469 C 2.445312 -5.722656 2.59375 -6.113281 2.878906 -6.386719 C 3.125 -6.625 3.457031 -6.746094 3.878906 -6.746094 C 4.257812 -6.746094 4.550781 -6.675781 4.761719 -6.53125 C 4.941406 -6.40625 5.042969 -6.261719 5.25 -5.945312 C 5.371094 -5.75 5.570312 -5.644531 5.839844 -5.644531 C 6.085938 -5.644531 6.300781 -5.730469 6.472656 -5.894531 C 6.644531 -6.054688 6.726562 -6.253906 6.726562 -6.476562 C 6.726562 -6.675781 6.671875 -6.867188 6.546875 -7.042969 C 6.246094 -7.476562 5.910156 -7.804688 5.542969 -8.027344 C 5.058594 -8.320312 4.5 -8.46875 3.878906 -8.46875 C 3.015625 -8.46875 2.226562 -8.140625 1.65625 -7.574219 C 1.070312 -6.984375 0.730469 -6.164062 0.730469 -5.21875 L 0.730469 -3.179688 C 0.730469 -2.234375 1.070312 -1.414062 1.65625 -0.824219 C 2.226562 -0.257812 3.015625 0.0703125 3.878906 0.0703125 Z M 3.878906 0.0703125 "/></g></g></g><g fill="#323232" fill-opacity="1"><g transform="translate(203.331233, 278.50466)"><g><path d="M 1.664062 0.0625 C 1.894531 0.0625 2.125 -0.03125 2.285156 -0.1875 C 2.457031 -0.34375 2.542969 -0.550781 2.542969 -0.800781 L 2.542969 -2.136719 L 5.269531 -2.136719 L 5.269531 -0.800781 C 5.269531 -0.558594 5.359375 -0.351562 5.53125 -0.1875 C 5.683594 -0.03125 5.902344 0.0625 6.152344 0.0625 C 6.382812 0.0625 6.613281 -0.03125 6.773438 -0.1875 C 6.945312 -0.359375 7.027344 -0.5625 7.027344 -0.800781 L 7.027344 -5 C 7.027344 -6.050781 6.726562 -6.925781 6.183594 -7.523438 C 5.625 -8.128906 4.839844 -8.457031 3.871094 -8.457031 C 2.917969 -8.457031 2.136719 -8.117188 1.601562 -7.507812 C 1.070312 -6.914062 0.789062 -6.074219 0.789062 -5.109375 L 0.789062 -0.800781 C 0.789062 -0.550781 0.871094 -0.34375 1.042969 -0.1875 C 1.214844 -0.0195312 1.425781 0.0625 1.664062 0.0625 Z M 2.542969 -3.886719 L 2.542969 -4.992188 C 2.542969 -6.175781 3.015625 -6.707031 3.910156 -6.707031 C 4.800781 -6.707031 5.269531 -6.09375 5.269531 -5 L 5.269531 -3.886719 Z M 2.542969 -3.886719 "/></g></g></g><g fill="#323232" fill-opacity="1"><g transform="translate(211.142271, 278.50466)"><g><path d="M 3.4375 0.078125 C 3.667969 0.078125 3.886719 -0.0117188 4.046875 -0.167969 C 4.199219 -0.320312 4.296875 -0.53125 4.296875 -0.761719 L 4.296875 -6.761719 L 5.890625 -6.761719 C 6.121094 -6.761719 6.335938 -6.847656 6.492188 -7.003906 C 6.644531 -7.15625 6.742188 -7.367188 6.742188 -7.597656 C 6.742188 -7.828125 6.644531 -8.046875 6.492188 -8.207031 C 6.335938 -8.359375 6.121094 -8.457031 5.890625 -8.457031 L 1 -8.457031 C 0.761719 -8.457031 0.5625 -8.371094 0.398438 -8.207031 C 0.242188 -8.054688 0.152344 -7.839844 0.152344 -7.609375 C 0.152344 -7.375 0.238281 -7.167969 0.398438 -7.007812 C 0.5625 -6.84375 0.761719 -6.761719 1 -6.761719 L 2.625 -6.761719 L 2.625 -0.761719 C 2.625 -0.519531 2.703125 -0.320312 2.855469 -0.167969 C 3.007812 -0.0078125 3.199219 0.078125 3.4375 0.078125 Z M 3.4375 0.078125 "/></g></g></g><g fill="#323232" fill-opacity="1"><g transform="translate(218.051298, 278.50466)"><g><path d="M 1.703125 0.0703125 C 1.941406 0.0703125 2.144531 -0.0117188 2.304688 -0.171875 C 2.457031 -0.328125 2.554688 -0.539062 2.554688 -0.769531 L 2.554688 -7.628906 C 2.554688 -7.867188 2.472656 -8.066406 2.304688 -8.230469 C 2.136719 -8.390625 1.941406 -8.46875 1.703125 -8.46875 C 1.472656 -8.46875 1.253906 -8.378906 1.101562 -8.230469 C 0.933594 -8.066406 0.851562 -7.867188 0.851562 -7.628906 L 0.851562 -0.769531 C 0.851562 -0.539062 0.949219 -0.328125 1.101562 -0.171875 C 1.253906 -0.0195312 1.472656 0.0703125 1.703125 0.0703125 Z M 1.703125 0.0703125 "/></g></g></g><g fill="#323232" fill-opacity="1"><g transform="translate(221.454633, 278.50466)"><g><path d="M 3.871094 0.078125 C 4.1875 0.0703125 4.472656 -0.0976562 4.621094 -0.398438 C 4.652344 -0.441406 4.671875 -0.488281 4.679688 -0.523438 L 7.453125 -7.304688 C 7.496094 -7.433594 7.523438 -7.546875 7.523438 -7.644531 C 7.523438 -7.847656 7.4375 -8.054688 7.292969 -8.214844 C 7.117188 -8.386719 6.917969 -8.46875 6.683594 -8.46875 C 6.34375 -8.46875 6.035156 -8.277344 5.902344 -7.949219 L 3.871094 -2.988281 L 1.84375 -7.949219 C 1.695312 -8.277344 1.382812 -8.476562 1.050781 -8.476562 C 0.8125 -8.476562 0.609375 -8.386719 0.433594 -8.214844 C 0.28125 -8.054688 0.191406 -7.835938 0.191406 -7.628906 C 0.191406 -7.535156 0.21875 -7.425781 0.261719 -7.304688 L 3.074219 -0.449219 C 3.21875 -0.121094 3.515625 0.078125 3.839844 0.078125 Z M 3.871094 0.078125 "/></g></g></g><g fill="#323232" fill-opacity="1"><g transform="translate(229.163316, 278.50466)"><g><path d="M 3.980469 0.0703125 C 4.832031 0.0703125 5.632812 -0.261719 6.222656 -0.832031 C 6.816406 -1.414062 7.167969 -2.234375 7.167969 -3.179688 L 7.167969 -5.21875 C 7.167969 -6.164062 6.816406 -6.984375 6.222656 -7.574219 C 5.632812 -8.140625 4.832031 -8.46875 3.980469 -8.46875 C 3.128906 -8.46875 2.324219 -8.140625 1.734375 -7.574219 C 1.140625 -6.984375 0.789062 -6.164062 0.789062 -5.21875 L 0.789062 -3.179688 C 0.789062 -2.234375 1.140625 -1.414062 1.734375 -0.832031 C 2.324219 -0.261719 3.128906 0.0703125 3.980469 0.0703125 Z M 3.980469 -1.652344 C 3.589844 -1.652344 3.21875 -1.78125 2.957031 -2.015625 C 2.65625 -2.292969 2.503906 -2.675781 2.503906 -3.167969 L 2.503906 -5.230469 C 2.503906 -5.734375 2.667969 -6.125 2.957031 -6.382812 C 3.21875 -6.617188 3.589844 -6.746094 3.980469 -6.746094 C 4.371094 -6.746094 4.738281 -6.632812 5 -6.382812 C 5.289062 -6.125 5.453125 -5.734375 5.453125 -5.230469 L 5.453125 -3.167969 C 5.453125 -2.675781 5.300781 -2.292969 5 -2.015625 C 4.738281 -1.765625 4.371094 -1.652344 3.980469 -1.652344 Z M 3.980469 -1.652344 "/></g></g></g><g fill="#323232" fill-opacity="1"><g transform="translate(237.121491, 278.50466)"><g/></g></g><g fill="#323232" fill-opacity="1"><g transform="translate(240.070622, 278.50466)"><g><path d="M 3.980469 0.0703125 C 4.832031 0.0703125 5.632812 -0.261719 6.222656 -0.832031 C 6.816406 -1.414062 7.167969 -2.234375 7.167969 -3.179688 L 7.167969 -5.21875 C 7.167969 -6.164062 6.816406 -6.984375 6.222656 -7.574219 C 5.632812 -8.140625 4.832031 -8.46875 3.980469 -8.46875 C 3.128906 -8.46875 2.324219 -8.140625 1.734375 -7.574219 C 1.140625 -6.984375 0.789062 -6.164062 0.789062 -5.21875 L 0.789062 -3.179688 C 0.789062 -2.234375 1.140625 -1.414062 1.734375 -0.832031 C 2.324219 -0.261719 3.128906 0.0703125 3.980469 0.0703125 Z M 3.980469 -1.652344 C 3.589844 -1.652344 3.21875 -1.78125 2.957031 -2.015625 C 2.65625 -2.292969 2.503906 -2.675781 2.503906 -3.167969 L 2.503906 -5.230469 C 2.503906 -5.734375 2.667969 -6.125 2.957031 -6.382812 C 3.21875 -6.617188 3.589844 -6.746094 3.980469 -6.746094 C 4.371094 -6.746094 4.738281 -6.632812 5 -6.382812 C 5.289062 -6.125 5.453125 -5.734375 5.453125 -5.230469 L 5.453125 -3.167969 C 5.453125 -2.675781 5.300781 -2.292969 5 -2.015625 C 4.738281 -1.765625 4.371094 -1.652344 3.980469 -1.652344 Z M 3.980469 -1.652344 "/></g></g></g><g fill="#323232" fill-opacity="1"><g transform="translate(248.028797, 278.50466)"><g><path d="M 1.722656 0.0625 C 1.953125 0.0625 2.1875 -0.03125 2.347656 -0.1875 C 2.523438 -0.359375 2.605469 -0.5625 2.605469 -0.800781 L 2.605469 -4.992188 C 2.605469 -6.175781 3.058594 -6.707031 3.976562 -6.707031 C 4.847656 -6.707031 5.332031 -6.082031 5.332031 -5 L 5.332031 -0.800781 C 5.332031 -0.550781 5.414062 -0.34375 5.589844 -0.1875 C 5.761719 -0.0195312 5.972656 0.0625 6.210938 0.0625 C 6.441406 0.0625 6.671875 -0.03125 6.832031 -0.1875 C 7.003906 -0.34375 7.085938 -0.550781 7.085938 -0.800781 L 7.085938 -5 C 7.085938 -6.050781 6.792969 -6.925781 6.246094 -7.523438 C 5.691406 -8.128906 4.898438 -8.457031 3.929688 -8.457031 C 2.976562 -8.457031 2.195312 -8.117188 1.65625 -7.507812 C 1.125 -6.914062 0.84375 -6.074219 0.84375 -5.109375 L 0.84375 -0.800781 C 0.84375 -0.558594 0.933594 -0.351562 1.109375 -0.1875 C 1.261719 -0.03125 1.492188 0.0625 1.722656 0.0625 Z M 1.722656 0.0625 "/></g></g></g><g fill="#323232" fill-opacity="1"><g transform="translate(256.070136, 278.50466)"><g><path d="M 5.460938 0 C 5.703125 0 5.902344 -0.078125 6.0625 -0.238281 C 6.222656 -0.390625 6.304688 -0.589844 6.304688 -0.839844 C 6.304688 -1.074219 6.222656 -1.28125 6.0625 -1.441406 C 5.894531 -1.605469 5.695312 -1.691406 5.460938 -1.691406 L 2.554688 -1.695312 L 2.554688 -7.628906 C 2.554688 -7.867188 2.472656 -8.066406 2.304688 -8.230469 C 2.136719 -8.390625 1.941406 -8.46875 1.703125 -8.46875 C 1.472656 -8.46875 1.253906 -8.378906 1.101562 -8.230469 C 0.933594 -8.066406 0.851562 -7.867188 0.851562 -7.628906 L 0.851562 -0.839844 C 0.851562 -0.609375 0.929688 -0.417969 1.089844 -0.257812 C 1.234375 -0.101562 1.441406 -0.0078125 1.664062 0 Z M 5.460938 0 "/></g></g></g><g fill="#323232" fill-opacity="1"><g transform="translate(262.832026, 278.50466)"><g><path d="M 1.703125 0.0703125 C 1.941406 0.0703125 2.144531 -0.0117188 2.304688 -0.171875 C 2.457031 -0.328125 2.554688 -0.539062 2.554688 -0.769531 L 2.554688 -7.628906 C 2.554688 -7.867188 2.472656 -8.066406 2.304688 -8.230469 C 2.136719 -8.390625 1.941406 -8.46875 1.703125 -8.46875 C 1.472656 -8.46875 1.253906 -8.378906 1.101562 -8.230469 C 0.933594 -8.066406 0.851562 -7.867188 0.851562 -7.628906 L 0.851562 -0.769531 C 0.851562 -0.539062 0.949219 -0.328125 1.101562 -0.171875 C 1.253906 -0.0195312 1.472656 0.0703125 1.703125 0.0703125 Z M 1.703125 0.0703125 "/></g></g></g><g fill="#323232" fill-opacity="1"><g transform="translate(266.235361, 278.50466)"><g><path d="M 1.722656 0.0625 C 1.953125 0.0625 2.1875 -0.03125 2.347656 -0.1875 C 2.523438 -0.359375 2.605469 -0.5625 2.605469 -0.800781 L 2.605469 -4.992188 C 2.605469 -6.175781 3.058594 -6.707031 3.976562 -6.707031 C 4.847656 -6.707031 5.332031 -6.082031 5.332031 -5 L 5.332031 -0.800781 C 5.332031 -0.550781 5.414062 -0.34375 5.589844 -0.1875 C 5.761719 -0.0195312 5.972656 0.0625 6.210938 0.0625 C 6.441406 0.0625 6.671875 -0.03125 6.832031 -0.1875 C 7.003906 -0.34375 7.085938 -0.550781 7.085938 -0.800781 L 7.085938 -5 C 7.085938 -6.050781 6.792969 -6.925781 6.246094 -7.523438 C 5.691406 -8.128906 4.898438 -8.457031 3.929688 -8.457031 C 2.976562 -8.457031 2.195312 -8.117188 1.65625 -7.507812 C 1.125 -6.914062 0.84375 -6.074219 0.84375 -5.109375 L 0.84375 -0.800781 C 0.84375 -0.558594 0.933594 -0.351562 1.109375 -0.1875 C 1.261719 -0.03125 1.492188 0.0625 1.722656 0.0625 Z M 1.722656 0.0625 "/></g></g></g><g fill="#323232" fill-opacity="1"><g transform="translate(274.276701, 278.50466)"><g><path d="M 5.460938 0 C 5.695312 0 5.894531 -0.078125 6.0625 -0.238281 C 6.222656 -0.398438 6.300781 -0.59375 6.300781 -0.839844 C 6.300781 -1.070312 6.210938 -1.292969 6.0625 -1.445312 C 5.894531 -1.613281 5.695312 -1.695312 5.460938 -1.695312 L 2.554688 -1.695312 L 2.554688 -3.480469 L 4.730469 -3.480469 C 4.96875 -3.480469 5.171875 -3.558594 5.332031 -3.710938 C 5.5 -3.871094 5.582031 -4.066406 5.582031 -4.300781 C 5.582031 -4.539062 5.5 -4.738281 5.332031 -4.902344 C 5.164062 -5.0625 4.96875 -5.140625 4.730469 -5.140625 L 2.554688 -5.140625 L 2.554688 -6.746094 L 5.460938 -6.746094 C 5.695312 -6.746094 5.894531 -6.832031 6.0625 -6.996094 C 6.210938 -7.148438 6.300781 -7.375 6.300781 -7.605469 C 6.300781 -7.835938 6.210938 -8.054688 6.0625 -8.207031 C 5.894531 -8.371094 5.695312 -8.457031 5.460938 -8.457031 L 1.703125 -8.457031 C 1.464844 -8.457031 1.261719 -8.371094 1.09375 -8.207031 C 0.941406 -8.054688 0.851562 -7.835938 0.851562 -7.605469 L 0.851562 -0.839844 C 0.851562 -0.613281 0.929688 -0.421875 1.082031 -0.261719 C 1.222656 -0.109375 1.410156 -0.0195312 1.640625 0 Z M 5.460938 0 "/></g></g></g></svg>