<?xml version="1.0" standalone="no"?>
<!DOCTYPE svg PUBLIC "-//W3C//DTD SVG 20010904//EN"
 "http://www.w3.org/TR/2001/REC-SVG-20010904/DTD/svg10.dtd">
<svg version="1.1" id="Capa_1" xmlns="http://www.w3.org/2000/svg" xmlns:xlink="http://www.w3.org/1999/xlink" x="0px" y="0px"
	 viewBox="0 0 501.11 147.9" style="enable-background:new 0 0 501.11 147.9;" xml:space="preserve">

<g transform="translate(0.000000,500.000000) scale(0.100000,-0.100000)"
fill="#ffffff" stroke="none">
<path d="M1270 1346 c0 -31 5 -56 10 -56 6 0 10 6 10 14 0 8 10 16 21 18 56 8
48 70 -10 76 l-31 3 0 -55z m55 14 c0 -8 -8 -16 -17 -18 -13 -2 -18 3 -18 18
0 15 5 20 18 18 9 -2 17 -10 17 -18z"/>
<path d="M1370 1345 c0 -54 0 -55 29 -55 17 0 33 5 36 10 4 6 -5 10 -19 10
-24 0 -26 3 -26 45 0 25 -4 45 -10 45 -5 0 -10 -25 -10 -55z"/>
<path d="M1467 1393 c-4 -3 -7 -29 -7 -57 1 -45 2 -49 14 -33 16 21 46 22 46
1 0 -8 5 -12 10 -9 13 8 13 61 0 86 -10 18 -50 26 -63 12z m51 -36 c2 -12 -3
-17 -17 -17 -15 0 -21 6 -21 21 0 25 33 22 38 -4z"/>
<path d="M1555 1390 c3 -5 13 -10 21 -10 10 0 14 -13 14 -46 0 -27 4 -43 10
-39 6 3 10 24 10 46 0 28 4 39 15 39 8 0 15 5 15 10 0 6 -21 10 -46 10 -27 0
-43 -4 -39 -10z"/>
<path d="M1660 1375 c-13 -34 -13 -72 0 -80 6 -3 13 1 16 9 8 21 24 20 40 -1
12 -16 14 -11 12 37 -3 52 -5 55 -30 58 -22 3 -30 -2 -38 -23z m50 -15 c0 -11
-7 -20 -15 -20 -8 0 -15 9 -15 20 0 11 7 20 15 20 8 0 15 -9 15 -20z"/>
<path d="M1760 1345 c0 -30 5 -55 10 -55 6 0 10 8 10 19 0 10 10 22 23 26 l22
8 -22 4 c-32 6 -30 33 2 33 14 0 25 5 25 10 0 6 -16 10 -35 10 l-35 0 0 -55z"/>
<path d="M1852 1388 c-26 -26 -7 -98 26 -98 28 0 42 21 42 61 0 46 -38 67 -68
37z m46 -40 c-3 -36 -30 -46 -36 -15 -5 26 5 47 23 47 12 0 15 -8 13 -32z"/>
<path d="M1950 1346 c0 -31 5 -56 10 -56 6 0 10 7 10 15 0 19 14 19 30 0 7 -8
17 -12 22 -9 6 4 6 10 0 16 -7 7 -7 17 1 29 17 27 -2 53 -42 57 l-31 3 0 -55z
m55 14 c0 -8 -8 -16 -17 -18 -13 -2 -18 3 -18 18 0 15 5 20 18 18 9 -2 17 -10
17 -18z"/>
<path d="M2061 1387 c-13 -13 -15 -97 -2 -97 6 0 11 19 13 43 4 55 22 54 26
-1 4 -52 22 -46 22 9 0 53 18 50 22 -3 4 -50 22 -57 26 -11 5 51 -12 72 -57
71 -22 0 -44 -5 -50 -11z"/>
<path d="M2197 1393 c-4 -3 -7 -29 -7 -57 1 -45 2 -49 14 -33 16 21 46 22 46
1 0 -8 5 -12 10 -9 13 8 13 61 0 86 -10 18 -50 26 -63 12z m51 -36 c2 -12 -3
-17 -17 -17 -15 0 -21 6 -21 21 0 25 33 22 38 -4z"/>
<path d="M2332 1348 c3 -52 4 -53 36 -56 18 -2 32 1 32 7 0 6 -11 11 -25 11
-30 0 -33 20 -5 27 11 3 20 9 20 14 0 5 -9 9 -20 9 -11 0 -20 5 -20 10 0 6 11
10 25 10 14 0 25 5 25 10 0 6 -16 10 -36 10 l-35 0 3 -52z"/>
<path d="M2420 1345 c0 -54 1 -55 28 -55 36 0 52 17 52 55 0 38 -16 55 -52 55
-27 0 -28 -1 -28 -55z m55 0 c0 -20 -6 -31 -17 -33 -15 -3 -18 4 -18 33 0 29
3 36 18 33 11 -2 17 -13 17 -33z"/>
<path d="M2520 1364 c0 -44 15 -74 38 -74 29 0 42 21 42 67 0 56 -18 56 -22 1
-2 -30 -8 -43 -18 -43 -10 0 -16 13 -18 43 -4 51 -22 57 -22 6z"/>
<path d="M2643 1394 c-18 -8 -16 -79 2 -94 15 -12 55 -5 55 11 0 5 -10 8 -22
6 -19 -2 -24 3 -26 32 -3 32 -2 33 23 27 20 -5 26 -3 23 6 -5 14 -35 20 -55
12z"/>
<path d="M2732 1388 c-14 -14 -16 -98 -2 -98 6 0 10 7 10 15 0 8 9 15 20 15
11 0 20 -7 20 -15 0 -8 5 -15 10 -15 14 0 12 84 -2 98 -7 7 -19 12 -28 12 -9
0 -21 -5 -28 -12z m46 -31 c2 -12 -3 -17 -17 -17 -12 0 -21 6 -21 13 0 31 32
34 38 4z"/>
<path d="M2820 1390 c0 -5 7 -10 15 -10 11 0 15 -12 15 -45 0 -25 5 -45 10
-45 6 0 10 20 10 45 0 33 4 45 15 45 8 0 15 5 15 10 0 6 -18 10 -40 10 -22 0
-40 -4 -40 -10z"/>
<path d="M2920 1345 c0 -30 5 -55 10 -55 6 0 10 25 10 55 0 30 -4 55 -10 55
-5 0 -10 -25 -10 -55z"/>
<path d="M2960 1388 c1 -17 37 -98 45 -98 6 0 45 86 45 101 0 22 -19 6 -32
-28 l-14 -38 -14 38 c-14 36 -30 50 -30 25z"/>
<path d="M3081 1386 c-17 -20 -10 -77 12 -90 25 -16 51 4 55 43 4 36 -12 61
-38 61 -10 0 -23 -6 -29 -14z m44 -41 c0 -43 -29 -40 -33 3 -3 28 0 33 15 30
13 -2 18 -12 18 -33z"/>
<path d="M3222 1388 c-26 -26 -7 -98 26 -98 28 0 42 21 42 61 0 46 -38 67 -68
37z m46 -40 c-3 -36 -30 -46 -36 -15 -5 26 5 47 23 47 12 0 15 -8 13 -32z"/>
<path d="M3332 1388 c-14 -14 -16 -98 -3 -98 6 0 11 19 13 43 2 29 8 42 18 42
10 0 16 -13 18 -42 4 -56 22 -56 22 0 0 45 -13 67 -40 67 -9 0 -21 -5 -28 -12z"/>
<path d="M3430 1345 c0 -54 0 -55 29 -55 17 0 33 5 36 10 4 6 -5 10 -19 10
-24 0 -26 3 -26 45 0 25 -4 45 -10 45 -5 0 -10 -25 -10 -55z"/>
<path d="M3520 1345 c0 -30 5 -55 10 -55 6 0 10 25 10 55 0 30 -4 55 -10 55
-5 0 -10 -25 -10 -55z"/>
<path d="M3570 1381 c-13 -25 -13 -78 -1 -86 6 -3 11 14 13 37 2 31 8 44 21
46 14 3 17 -4 17 -37 0 -22 5 -43 10 -46 6 -4 10 13 10 43 0 36 -4 52 -16 56
-27 10 -43 7 -54 -13z"/>
<path d="M3670 1345 l0 -55 35 0 c19 0 35 5 35 10 0 6 -11 10 -25 10 -16 0
-25 6 -25 15 0 8 9 15 20 15 11 0 20 5 20 10 0 6 -9 10 -20 10 -11 0 -20 5
-20 10 0 6 11 10 25 10 14 0 25 5 25 10 0 6 -16 10 -35 10 l-35 0 0 -55z"/>
</g>
</svg>
